<?xml version="1.0" encoding="utf-8" standalone="no"?>
<!DOCTYPE svg PUBLIC "-//W3C//DTD SVG 1.1//EN"
  "http://www.w3.org/Graphics/SVG/1.1/DTD/svg11.dtd">
<svg xmlns:xlink="http://www.w3.org/1999/xlink" viewBox="0 0 460.8 345.6" xmlns="http://www.w3.org/2000/svg" version="1.1" class="graph-inline-svg" role="img" aria-label="Tilpasset figur">
 <metadata>
  <rdf:RDF xmlns:dc="http://purl.org/dc/elements/1.1/" xmlns:cc="http://creativecommons.org/ns#" xmlns:rdf="http://www.w3.org/1999/02/22-rdf-syntax-ns#">
   <cc:Work>
    <dc:type rdf:resource="http://purl.org/dc/dcmitype/StillImage"/>
    <dc:date>2026-05-17T13:38:09.570400</dc:date>
    <dc:format>image/svg+xml</dc:format>
    <dc:creator>
     <cc:Agent>
      <dc:title>Matplotlib v3.9.1, https://matplotlib.org/</dc:title>
     </cc:Agent>
    </dc:creator>
   </cc:Work>
  </rdf:RDF>
 </metadata>
 <defs>
  <style type="text/css">*{stroke-linejoin: round; stroke-linecap: butt}</style>
 </defs>
 <g id="g2f0002_aa7fa5_figure_1">
  <g id="g2f0002_aa7fa5_patch_1">
   <path d="M 0 345.6 
L 460.8 345.6 
L 460.8 0 
L 0 0 
L 0 345.6 
z
" style="fill: none"/>
  </g>
  <g id="g2f0002_aa7fa5_axes_1">
   <g id="g2f0002_aa7fa5_patch_2">
    <path d="M 13.490707 334.8 
L 447 334.8 
L 447 20.016315 
L 13.490707 20.016315 
L 13.490707 334.8 
z
" style="fill: none"/>
   </g>
   <g id="g2f0002_aa7fa5_matplotlib.axis_1">
    <g id="g2f0002_aa7fa5_xtick_1">
     <g id="g2f0002_aa7fa5_line2d_1">
      <path d="M 23.154927 334.8 
L 23.154927 20.016315 
" clip-path="url(#g2f0002_aa7fa5_pdab04590fc)" style="fill: none; stroke-dasharray: 2.96,1.28; stroke-dashoffset: 0; stroke: #b0b0b0; stroke-opacity: 0.6; stroke-width: 0.8"/>
     </g>
     <g id="g2f0002_aa7fa5_line2d_2">
      <defs>
       <path id="g2f0002_aa7fa5_mc0f496a70f" d="M 0 0 
L 0 3.5 
" style="stroke: #000000; stroke-width: 0.8"/>
      </defs>
      <g>
       <use xlink:href="#g2f0002_aa7fa5_mc0f496a70f" x="23.154927" y="177.408158" style="stroke: #000000; stroke-width: 0.8"/>
      </g>
     </g>
     <g id="g2f0002_aa7fa5_text_1">
      <!-- $\mathdefault{−6}$ -->
      <g transform="translate(10.837136 198.245154) scale(0.2 -0.2)">
       <defs>
        <path id="g2f0002_aa7fa5_CMSY10-0" d="M 4218 1472 
C 4326 1472 4442 1472 4442 1600 
C 4442 1728 4326 1728 4218 1728 
L 755 1728 
C 646 1728 531 1728 531 1600 
C 531 1472 646 1472 755 1472 
L 4218 1472 
z
" transform="scale(0.015625)"/>
        <path id="g2f0002_aa7fa5_CMR17-36" d="M 678 2176 
C 678 3690 1395 4032 1811 4032 
C 1946 4032 2272 4009 2400 3776 
C 2298 3776 2106 3776 2106 3553 
C 2106 3381 2246 3323 2336 3323 
C 2394 3323 2566 3348 2566 3560 
C 2566 3954 2246 4179 1805 4179 
C 1043 4179 243 3390 243 1984 
C 243 253 966 -128 1478 -128 
C 2099 -128 2688 427 2688 1283 
C 2688 2081 2170 2662 1517 2662 
C 1126 2662 838 2407 678 1960 
L 678 2176 
z
M 1478 25 
C 691 25 691 1200 691 1436 
C 691 1896 909 2560 1504 2560 
C 1613 2560 1926 2560 2138 2120 
C 2253 1870 2253 1609 2253 1289 
C 2253 944 2253 690 2118 434 
C 1978 171 1773 25 1478 25 
z
" transform="scale(0.015625)"/>
       </defs>
       <use xlink:href="#g2f0002_aa7fa5_CMSY10-0" transform="scale(0.996264)"/>
       <use xlink:href="#g2f0002_aa7fa5_CMR17-36" transform="translate(77.487468 0) scale(0.996264)"/>
      </g>
     </g>
    </g>
    <g id="g2f0002_aa7fa5_xtick_2">
     <g id="g2f0002_aa7fa5_line2d_3">
      <path d="M 57.669998 334.8 
L 57.669998 20.016315 
" clip-path="url(#g2f0002_aa7fa5_pdab04590fc)" style="fill: none; stroke-dasharray: 2.96,1.28; stroke-dashoffset: 0; stroke: #b0b0b0; stroke-opacity: 0.6; stroke-width: 0.8"/>
     </g>
     <g id="g2f0002_aa7fa5_line2d_4">
      <g>
       <use xlink:href="#g2f0002_aa7fa5_mc0f496a70f" x="57.669998" y="177.408158" style="stroke: #000000; stroke-width: 0.8"/>
      </g>
     </g>
     <g id="g2f0002_aa7fa5_text_2">
      <!-- $\mathdefault{−5}$ -->
      <g transform="translate(45.352207 198.245154) scale(0.2 -0.2)">
       <defs>
        <path id="g2f0002_aa7fa5_CMR17-35" d="M 730 3692 
C 794 3666 1056 3584 1325 3584 
C 1920 3584 2246 3911 2432 4100 
C 2432 4157 2432 4192 2394 4192 
C 2387 4192 2374 4192 2323 4163 
C 2099 4058 1837 3973 1517 3973 
C 1325 3973 1037 3999 723 4139 
C 653 4171 640 4171 634 4171 
C 602 4171 595 4164 595 4037 
L 595 2203 
C 595 2089 595 2057 659 2057 
C 691 2057 704 2070 736 2114 
C 941 2401 1222 2522 1542 2522 
C 1766 2522 2246 2382 2246 1289 
C 2246 1085 2246 715 2054 421 
C 1894 159 1645 25 1370 25 
C 947 25 518 320 403 814 
C 429 807 480 795 506 795 
C 589 795 749 840 749 1038 
C 749 1210 627 1280 506 1280 
C 358 1280 262 1190 262 1011 
C 262 454 704 -128 1382 -128 
C 2042 -128 2669 440 2669 1264 
C 2669 2030 2170 2624 1549 2624 
C 1222 2624 947 2503 730 2274 
L 730 3692 
z
" transform="scale(0.015625)"/>
       </defs>
       <use xlink:href="#g2f0002_aa7fa5_CMSY10-0" transform="scale(0.996264)"/>
       <use xlink:href="#g2f0002_aa7fa5_CMR17-35" transform="translate(77.487468 0) scale(0.996264)"/>
      </g>
     </g>
    </g>
    <g id="g2f0002_aa7fa5_xtick_3">
     <g id="g2f0002_aa7fa5_line2d_5">
      <path d="M 92.185069 334.8 
L 92.185069 20.016315 
" clip-path="url(#g2f0002_aa7fa5_pdab04590fc)" style="fill: none; stroke-dasharray: 2.96,1.28; stroke-dashoffset: 0; stroke: #b0b0b0; stroke-opacity: 0.6; stroke-width: 0.8"/>
     </g>
     <g id="g2f0002_aa7fa5_line2d_6">
      <g>
       <use xlink:href="#g2f0002_aa7fa5_mc0f496a70f" x="92.185069" y="177.408158" style="stroke: #000000; stroke-width: 0.8"/>
      </g>
     </g>
     <g id="g2f0002_aa7fa5_text_3">
      <!-- $\mathdefault{−4}$ -->
      <g transform="translate(79.867278 198.245154) scale(0.2 -0.2)">
       <defs>
        <path id="g2f0002_aa7fa5_CMR17-34" d="M 2150 4122 
C 2150 4256 2144 4256 2029 4256 
L 128 1254 
L 128 1088 
L 1779 1088 
L 1779 457 
C 1779 224 1766 160 1318 160 
L 1197 160 
L 1197 0 
C 1402 0 1747 0 1965 0 
C 2182 0 2528 0 2733 0 
L 2733 160 
L 2611 160 
C 2163 160 2150 224 2150 457 
L 2150 1088 
L 2803 1088 
L 2803 1254 
L 2150 1254 
L 2150 4122 
z
M 1798 3703 
L 1798 1254 
L 256 1254 
L 1798 3703 
z
" transform="scale(0.015625)"/>
       </defs>
       <use xlink:href="#g2f0002_aa7fa5_CMSY10-0" transform="scale(0.996264)"/>
       <use xlink:href="#g2f0002_aa7fa5_CMR17-34" transform="translate(77.487468 0) scale(0.996264)"/>
      </g>
     </g>
    </g>
    <g id="g2f0002_aa7fa5_xtick_4">
     <g id="g2f0002_aa7fa5_line2d_7">
      <path d="M 126.700141 334.8 
L 126.700141 20.016315 
" clip-path="url(#g2f0002_aa7fa5_pdab04590fc)" style="fill: none; stroke-dasharray: 2.96,1.28; stroke-dashoffset: 0; stroke: #b0b0b0; stroke-opacity: 0.6; stroke-width: 0.8"/>
     </g>
     <g id="g2f0002_aa7fa5_line2d_8">
      <g>
       <use xlink:href="#g2f0002_aa7fa5_mc0f496a70f" x="126.700141" y="177.408158" style="stroke: #000000; stroke-width: 0.8"/>
      </g>
     </g>
     <g id="g2f0002_aa7fa5_text_4">
      <!-- $\mathdefault{−3}$ -->
      <g transform="translate(114.382349 198.245154) scale(0.2 -0.2)">
       <defs>
        <path id="g2f0002_aa7fa5_CMR17-33" d="M 1414 2157 
C 1984 2157 2234 1662 2234 1090 
C 2234 320 1824 25 1453 25 
C 1114 25 563 194 390 693 
C 422 680 454 680 486 680 
C 640 680 755 782 755 948 
C 755 1133 614 1216 486 1216 
C 378 1216 211 1165 211 926 
C 211 335 787 -128 1466 -128 
C 2176 -128 2720 430 2720 1085 
C 2720 1707 2208 2157 1600 2227 
C 2086 2328 2554 2756 2554 3329 
C 2554 3820 2048 4179 1472 4179 
C 890 4179 378 3829 378 3329 
C 378 3110 544 3072 627 3072 
C 762 3072 877 3155 877 3321 
C 877 3486 762 3569 627 3569 
C 602 3569 570 3569 544 3557 
C 730 3959 1235 4032 1459 4032 
C 1683 4032 2106 3925 2106 3320 
C 2106 3143 2080 2828 1862 2550 
C 1670 2304 1453 2304 1242 2284 
C 1210 2284 1062 2269 1037 2269 
C 992 2263 966 2257 966 2208 
C 966 2163 973 2157 1101 2157 
L 1414 2157 
z
" transform="scale(0.015625)"/>
       </defs>
       <use xlink:href="#g2f0002_aa7fa5_CMSY10-0" transform="scale(0.996264)"/>
       <use xlink:href="#g2f0002_aa7fa5_CMR17-33" transform="translate(77.487468 0) scale(0.996264)"/>
      </g>
     </g>
    </g>
    <g id="g2f0002_aa7fa5_xtick_5">
     <g id="g2f0002_aa7fa5_line2d_9">
      <path d="M 161.215212 334.8 
L 161.215212 20.016315 
" clip-path="url(#g2f0002_aa7fa5_pdab04590fc)" style="fill: none; stroke-dasharray: 2.96,1.28; stroke-dashoffset: 0; stroke: #b0b0b0; stroke-opacity: 0.6; stroke-width: 0.8"/>
     </g>
     <g id="g2f0002_aa7fa5_line2d_10">
      <g>
       <use xlink:href="#g2f0002_aa7fa5_mc0f496a70f" x="161.215212" y="177.408158" style="stroke: #000000; stroke-width: 0.8"/>
      </g>
     </g>
     <g id="g2f0002_aa7fa5_text_5">
      <!-- $\mathdefault{−2}$ -->
      <g transform="translate(148.89742 198.245154) scale(0.2 -0.2)">
       <defs>
        <path id="g2f0002_aa7fa5_CMR17-32" d="M 2669 989 
L 2554 989 
C 2490 536 2438 459 2413 420 
C 2381 369 1920 369 1830 369 
L 602 369 
C 832 619 1280 1072 1824 1597 
C 2214 1967 2669 2402 2669 3035 
C 2669 3790 2067 4224 1395 4224 
C 691 4224 262 3604 262 3030 
C 262 2780 448 2748 525 2748 
C 589 2748 781 2787 781 3010 
C 781 3207 614 3264 525 3264 
C 486 3264 448 3258 422 3245 
C 544 3790 915 4058 1306 4058 
C 1862 4058 2227 3617 2227 3035 
C 2227 2479 1901 2000 1536 1584 
L 262 146 
L 262 0 
L 2515 0 
L 2669 989 
z
" transform="scale(0.015625)"/>
       </defs>
       <use xlink:href="#g2f0002_aa7fa5_CMSY10-0" transform="scale(0.996264)"/>
       <use xlink:href="#g2f0002_aa7fa5_CMR17-32" transform="translate(77.487468 0) scale(0.996264)"/>
      </g>
     </g>
    </g>
    <g id="g2f0002_aa7fa5_xtick_6">
     <g id="g2f0002_aa7fa5_line2d_11">
      <path d="M 195.730283 334.8 
L 195.730283 20.016315 
" clip-path="url(#g2f0002_aa7fa5_pdab04590fc)" style="fill: none; stroke-dasharray: 2.96,1.28; stroke-dashoffset: 0; stroke: #b0b0b0; stroke-opacity: 0.6; stroke-width: 0.8"/>
     </g>
     <g id="g2f0002_aa7fa5_line2d_12">
      <g>
       <use xlink:href="#g2f0002_aa7fa5_mc0f496a70f" x="195.730283" y="177.408158" style="stroke: #000000; stroke-width: 0.8"/>
      </g>
     </g>
     <g id="g2f0002_aa7fa5_text_6">
      <!-- $\mathdefault{−1}$ -->
      <g transform="translate(183.412491 198.245154) scale(0.2 -0.2)">
       <defs>
        <path id="g2f0002_aa7fa5_CMR17-31" d="M 1702 4058 
C 1702 4192 1696 4192 1606 4192 
C 1357 3916 979 3827 621 3827 
C 602 3827 570 3827 563 3808 
C 557 3795 557 3782 557 3648 
C 755 3648 1088 3686 1344 3839 
L 1344 461 
C 1344 236 1331 160 781 160 
L 589 160 
L 589 0 
C 896 0 1216 0 1523 0 
C 1830 0 2150 0 2458 0 
L 2458 160 
L 2266 160 
C 1715 160 1702 230 1702 458 
L 1702 4058 
z
" transform="scale(0.015625)"/>
       </defs>
       <use xlink:href="#g2f0002_aa7fa5_CMSY10-0" transform="scale(0.996264)"/>
       <use xlink:href="#g2f0002_aa7fa5_CMR17-31" transform="translate(77.487468 0) scale(0.996264)"/>
      </g>
     </g>
    </g>
    <g id="g2f0002_aa7fa5_xtick_7">
     <g id="g2f0002_aa7fa5_line2d_13">
      <path d="M 264.760425 334.8 
L 264.760425 20.016315 
" clip-path="url(#g2f0002_aa7fa5_pdab04590fc)" style="fill: none; stroke-dasharray: 2.96,1.28; stroke-dashoffset: 0; stroke: #b0b0b0; stroke-opacity: 0.6; stroke-width: 0.8"/>
     </g>
     <g id="g2f0002_aa7fa5_line2d_14">
      <g>
       <use xlink:href="#g2f0002_aa7fa5_mc0f496a70f" x="264.760425" y="177.408158" style="stroke: #000000; stroke-width: 0.8"/>
      </g>
     </g>
     <g id="g2f0002_aa7fa5_text_7">
      <!-- $\mathdefault{1}$ -->
      <g transform="translate(260.191377 198.245154) scale(0.2 -0.2)">
       <use xlink:href="#g2f0002_aa7fa5_CMR17-31" transform="scale(0.996264)"/>
      </g>
     </g>
    </g>
    <g id="g2f0002_aa7fa5_xtick_8">
     <g id="g2f0002_aa7fa5_line2d_15">
      <path d="M 299.275496 334.8 
L 299.275496 20.016315 
" clip-path="url(#g2f0002_aa7fa5_pdab04590fc)" style="fill: none; stroke-dasharray: 2.96,1.28; stroke-dashoffset: 0; stroke: #b0b0b0; stroke-opacity: 0.6; stroke-width: 0.8"/>
     </g>
     <g id="g2f0002_aa7fa5_line2d_16">
      <g>
       <use xlink:href="#g2f0002_aa7fa5_mc0f496a70f" x="299.275496" y="177.408158" style="stroke: #000000; stroke-width: 0.8"/>
      </g>
     </g>
     <g id="g2f0002_aa7fa5_text_8">
      <!-- $\mathdefault{2}$ -->
      <g transform="translate(294.706448 198.245154) scale(0.2 -0.2)">
       <use xlink:href="#g2f0002_aa7fa5_CMR17-32" transform="scale(0.996264)"/>
      </g>
     </g>
    </g>
    <g id="g2f0002_aa7fa5_xtick_9">
     <g id="g2f0002_aa7fa5_line2d_17">
      <path d="M 333.790567 334.8 
L 333.790567 20.016315 
" clip-path="url(#g2f0002_aa7fa5_pdab04590fc)" style="fill: none; stroke-dasharray: 2.96,1.28; stroke-dashoffset: 0; stroke: #b0b0b0; stroke-opacity: 0.6; stroke-width: 0.8"/>
     </g>
     <g id="g2f0002_aa7fa5_line2d_18">
      <g>
       <use xlink:href="#g2f0002_aa7fa5_mc0f496a70f" x="333.790567" y="177.408158" style="stroke: #000000; stroke-width: 0.8"/>
      </g>
     </g>
     <g id="g2f0002_aa7fa5_text_9">
      <!-- $\mathdefault{3}$ -->
      <g transform="translate(329.221519 198.245154) scale(0.2 -0.2)">
       <use xlink:href="#g2f0002_aa7fa5_CMR17-33" transform="scale(0.996264)"/>
      </g>
     </g>
    </g>
    <g id="g2f0002_aa7fa5_xtick_10">
     <g id="g2f0002_aa7fa5_line2d_19">
      <path d="M 368.305638 334.8 
L 368.305638 20.016315 
" clip-path="url(#g2f0002_aa7fa5_pdab04590fc)" style="fill: none; stroke-dasharray: 2.96,1.28; stroke-dashoffset: 0; stroke: #b0b0b0; stroke-opacity: 0.6; stroke-width: 0.8"/>
     </g>
     <g id="g2f0002_aa7fa5_line2d_20">
      <g>
       <use xlink:href="#g2f0002_aa7fa5_mc0f496a70f" x="368.305638" y="177.408158" style="stroke: #000000; stroke-width: 0.8"/>
      </g>
     </g>
     <g id="g2f0002_aa7fa5_text_10">
      <!-- $\mathdefault{4}$ -->
      <g transform="translate(363.73659 198.245154) scale(0.2 -0.2)">
       <use xlink:href="#g2f0002_aa7fa5_CMR17-34" transform="scale(0.996264)"/>
      </g>
     </g>
    </g>
    <g id="g2f0002_aa7fa5_xtick_11">
     <g id="g2f0002_aa7fa5_line2d_21">
      <path d="M 402.820709 334.8 
L 402.820709 20.016315 
" clip-path="url(#g2f0002_aa7fa5_pdab04590fc)" style="fill: none; stroke-dasharray: 2.96,1.28; stroke-dashoffset: 0; stroke: #b0b0b0; stroke-opacity: 0.6; stroke-width: 0.8"/>
     </g>
     <g id="g2f0002_aa7fa5_line2d_22">
      <g>
       <use xlink:href="#g2f0002_aa7fa5_mc0f496a70f" x="402.820709" y="177.408158" style="stroke: #000000; stroke-width: 0.8"/>
      </g>
     </g>
     <g id="g2f0002_aa7fa5_text_11">
      <!-- $\mathdefault{5}$ -->
      <g transform="translate(398.251661 198.245154) scale(0.2 -0.2)">
       <use xlink:href="#g2f0002_aa7fa5_CMR17-35" transform="scale(0.996264)"/>
      </g>
     </g>
    </g>
    <g id="g2f0002_aa7fa5_xtick_12">
     <g id="g2f0002_aa7fa5_line2d_23">
      <path d="M 437.33578 334.8 
L 437.33578 20.016315 
" clip-path="url(#g2f0002_aa7fa5_pdab04590fc)" style="fill: none; stroke-dasharray: 2.96,1.28; stroke-dashoffset: 0; stroke: #b0b0b0; stroke-opacity: 0.6; stroke-width: 0.8"/>
     </g>
     <g id="g2f0002_aa7fa5_line2d_24">
      <g>
       <use xlink:href="#g2f0002_aa7fa5_mc0f496a70f" x="437.33578" y="177.408158" style="stroke: #000000; stroke-width: 0.8"/>
      </g>
     </g>
     <g id="g2f0002_aa7fa5_text_12">
      <!-- $\mathdefault{6}$ -->
      <g transform="translate(432.766732 198.245154) scale(0.2 -0.2)">
       <use xlink:href="#g2f0002_aa7fa5_CMR17-36" transform="scale(0.996264)"/>
      </g>
     </g>
    </g>
    <g id="g2f0002_aa7fa5_text_13">
     <!-- $x$ -->
     <g transform="translate(435.913188 219.957785) scale(0.2 -0.2)">
      <defs>
       <path id="g2f0002_aa7fa5_CMMI12-78" d="M 3034 2606 
C 2829 2567 2752 2414 2752 2293 
C 2752 2139 2874 2088 2963 2088 
C 3155 2088 3290 2254 3290 2427 
C 3290 2695 2982 2816 2714 2816 
C 2323 2816 2106 2433 2048 2312 
C 1901 2816 1504 2816 1389 2816 
C 736 2816 390 1980 390 1839 
C 390 1814 416 1782 461 1782 
C 512 1782 525 1820 538 1846 
C 755 2555 1184 2689 1370 2689 
C 1658 2689 1715 2420 1715 2267 
C 1715 2127 1677 1980 1600 1673 
L 1382 798 
C 1286 415 1101 64 762 64 
C 730 64 570 64 435 147 
C 666 192 717 383 717 460 
C 717 588 621 664 499 664 
C 346 664 179 530 179 326 
C 179 57 480 -64 755 -64 
C 1062 -64 1280 179 1414 441 
C 1517 64 1837 -64 2074 -64 
C 2726 -64 3072 773 3072 913 
C 3072 945 3046 971 3008 971 
C 2950 971 2944 939 2925 888 
C 2752 326 2381 64 2093 64 
C 1869 64 1747 230 1747 492 
C 1747 632 1773 734 1875 1156 
L 2099 2024 
C 2195 2408 2413 2689 2707 2689 
C 2720 2689 2899 2689 3034 2606 
z
" transform="scale(0.015625)"/>
      </defs>
      <use xlink:href="#g2f0002_aa7fa5_CMMI12-78" transform="scale(0.996264)"/>
     </g>
    </g>
   </g>
   <g id="g2f0002_aa7fa5_matplotlib.axis_2">
    <g id="g2f0002_aa7fa5_ytick_1">
     <g id="g2f0002_aa7fa5_line2d_25">
      <path d="M 13.490707 256.104079 
L 447 256.104079 
" clip-path="url(#g2f0002_aa7fa5_pdab04590fc)" style="fill: none; stroke-dasharray: 2.96,1.28; stroke-dashoffset: 0; stroke: #b0b0b0; stroke-opacity: 0.6; stroke-width: 0.8"/>
     </g>
     <g id="g2f0002_aa7fa5_line2d_26">
      <defs>
       <path id="g2f0002_aa7fa5_m4120a373cf" d="M 0 0 
L -3.5 0 
" style="stroke: #000000; stroke-width: 0.8"/>
      </defs>
      <g>
       <use xlink:href="#g2f0002_aa7fa5_m4120a373cf" x="230.245354" y="256.104079" style="stroke: #000000; stroke-width: 0.8"/>
      </g>
     </g>
     <g id="g2f0002_aa7fa5_text_14">
      <!-- $\mathdefault{−1}$ -->
      <g transform="translate(198.609771 263.022577) scale(0.2 -0.2)">
       <use xlink:href="#g2f0002_aa7fa5_CMSY10-0" transform="scale(0.996264)"/>
       <use xlink:href="#g2f0002_aa7fa5_CMR17-31" transform="translate(77.487468 0) scale(0.996264)"/>
      </g>
     </g>
    </g>
    <g id="g2f0002_aa7fa5_ytick_2">
     <g id="g2f0002_aa7fa5_line2d_27">
      <path d="M 13.490707 98.712236 
L 447 98.712236 
" clip-path="url(#g2f0002_aa7fa5_pdab04590fc)" style="fill: none; stroke-dasharray: 2.96,1.28; stroke-dashoffset: 0; stroke: #b0b0b0; stroke-opacity: 0.6; stroke-width: 0.8"/>
     </g>
     <g id="g2f0002_aa7fa5_line2d_28">
      <g>
       <use xlink:href="#g2f0002_aa7fa5_m4120a373cf" x="230.245354" y="98.712236" style="stroke: #000000; stroke-width: 0.8"/>
      </g>
     </g>
     <g id="g2f0002_aa7fa5_text_15">
      <!-- $\mathdefault{1}$ -->
      <g transform="translate(214.107258 105.630735) scale(0.2 -0.2)">
       <use xlink:href="#g2f0002_aa7fa5_CMR17-31" transform="scale(0.996264)"/>
      </g>
     </g>
    </g>
    <g id="g2f0002_aa7fa5_text_16">
     <!-- $y$ -->
     <g transform="translate(185.096936 16.140682) scale(0.2 -0.2)">
      <defs>
       <path id="g2f0002_aa7fa5_CMMI12-79" d="M 1683 -700 
C 1510 -939 1261 -1152 947 -1152 
C 870 -1152 563 -1152 467 -889 
C 486 -895 518 -895 531 -895 
C 723 -895 851 -729 851 -582 
C 851 -435 730 -384 634 -384 
C 531 -384 307 -458 307 -759 
C 307 -1071 582 -1286 947 -1286 
C 1587 -1286 2234 -700 2413 6 
L 3040 2485 
C 3046 2517 3059 2556 3059 2594 
C 3059 2689 2982 2753 2886 2753 
C 2829 2753 2694 2727 2643 2535 
L 2170 658 
C 2138 543 2138 530 2086 460 
C 1958 281 1747 64 1440 64 
C 1082 64 1050 415 1050 588 
C 1050 952 1222 1443 1395 1903 
C 1466 2088 1504 2178 1504 2305 
C 1504 2574 1312 2816 998 2816 
C 410 2816 173 1890 173 1839 
C 173 1814 198 1782 243 1782 
C 301 1782 307 1807 333 1897 
C 486 2433 730 2689 979 2689 
C 1037 2689 1146 2689 1146 2478 
C 1146 2312 1075 2127 979 1884 
C 666 1047 666 837 666 683 
C 666 77 1101 -64 1421 -64 
C 1606 -64 1837 -6 2061 230 
L 2067 224 
C 1971 -147 1907 -392 1683 -700 
z
" transform="scale(0.015625)"/>
      </defs>
      <use xlink:href="#g2f0002_aa7fa5_CMMI12-79" transform="scale(0.996264)"/>
     </g>
    </g>
   </g>
   <g id="g2f0002_aa7fa5_line2d_29">
    <defs>
     <path id="g2f0002_aa7fa5_m4195aef9d4" d="M 3 0 
L -3 -3 
L -3 3 
z
" style="stroke: #000000; stroke-linejoin: miter"/>
    </defs>
    <g>
     <use xlink:href="#g2f0002_aa7fa5_m4195aef9d4" x="447" y="177.408158" style="stroke: #000000; stroke-linejoin: miter"/>
    </g>
   </g>
   <g id="g2f0002_aa7fa5_line2d_30">
    <defs>
     <path id="g2f0002_aa7fa5_me003bcd8d5" d="M 0 -3 
L -3 3 
L 3 3 
z
" style="stroke: #000000; stroke-linejoin: miter"/>
    </defs>
    <g>
     <use xlink:href="#g2f0002_aa7fa5_me003bcd8d5" x="230.245354" y="20.016315" style="stroke: #000000; stroke-linejoin: miter"/>
    </g>
   </g>
   <g id="g2f0002_aa7fa5_line2d_31">
    <path d="M 13.490707 250.748103 
L 14.602066 248.002002 
L 15.84573 244.301473 
L 17.221697 239.475921 
L 18.756431 233.253671 
L 20.502852 225.20627 
L 22.540343 214.709666 
L 25.02767 200.649492 
L 28.732199 178.260761 
L 33.680391 148.573488 
L 36.194179 134.859945 
L 38.23167 124.918811 
L 40.004552 117.337197 
L 41.565746 111.60633 
L 42.941714 107.361 
L 44.185377 104.216327 
L 45.296736 101.98778 
L 46.27579 100.493394 
L 47.149001 99.538643 
L 47.942828 98.983985 
L 48.657273 98.741772 
L 49.345257 98.739383 
L 50.033241 98.963503 
L 50.747686 99.435289 
L 51.541514 100.243356 
L 52.414724 101.473698 
L 53.367318 103.217287 
L 54.425754 105.634328 
L 55.616496 108.93702 
L 56.939542 113.297576 
L 58.421354 118.988859 
L 60.088392 126.319262 
L 61.993578 135.745276 
L 64.269218 148.188745 
L 67.285763 166.029296 
L 74.800665 211.005424 
L 77.129226 223.307708 
L 79.060873 232.383062 
L 80.754372 239.320989 
L 82.262645 244.595101 
L 83.585691 248.458863 
L 84.776433 251.290812 
L 85.834869 253.274024 
L 86.787463 254.617324 
L 87.634212 255.453829 
L 88.401579 255.917992 
L 89.116024 256.097374 
L 89.804008 256.039191 
L 90.491992 255.754607 
L 91.232898 255.195893 
L 92.026725 254.309099 
L 92.926397 252.947957 
L 93.905451 251.044444 
L 94.990349 248.43431 
L 96.207551 244.901781 
L 97.557058 240.276105 
L 99.065331 234.285248 
L 100.785291 226.499127 
L 102.76986 216.428524 
L 105.151343 203.134773 
L 108.51188 182.982953 
L 114.412666 147.533664 
L 116.873531 134.192625 
L 118.884562 124.448571 
L 120.630982 117.034008 
L 122.165716 111.437591 
L 123.541684 107.220907 
L 124.758886 104.162763 
L 125.870245 101.94619 
L 126.849299 100.462612 
L 127.72251 99.517656 
L 128.516337 98.971987 
L 129.230782 98.737905 
L 129.918766 98.743356 
L 130.60675 98.975306 
L 131.321195 99.455187 
L 132.115023 100.272174 
L 132.988233 101.5122 
L 133.940826 103.266147 
L 134.999263 105.694379 
L 136.190005 109.009168 
L 137.513051 113.382432 
L 138.994863 119.086869 
L 140.661901 126.430499 
L 142.567087 135.869318 
L 144.842726 148.324478 
L 147.859272 166.173909 
L 155.321252 210.843709 
L 157.649813 223.162404 
L 159.607921 232.371395 
L 161.30142 239.310924 
L 162.809693 244.586611 
L 164.132739 248.451852 
L 165.32348 251.285197 
L 166.381917 253.26969 
L 167.334511 254.614168 
L 168.18126 255.451735 
L 168.948627 255.91687 
L 169.663072 256.097159 
L 170.351056 256.039851 
L 171.03904 255.75614 
L 171.779946 255.198361 
L 172.573773 254.312559 
L 173.473445 252.952526 
L 174.452499 251.050194 
L 175.537397 248.441329 
L 176.754599 244.910163 
L 178.104106 240.28591 
L 179.612379 234.296515 
L 181.332339 226.511869 
L 183.316908 216.442681 
L 185.698391 203.15018 
L 189.058928 182.999215 
L 194.959714 147.548748 
L 197.420579 134.206252 
L 199.43161 124.460631 
L 201.17803 117.044467 
L 202.712764 111.446482 
L 204.088732 107.228282 
L 205.305934 104.168727 
L 206.417293 101.950817 
L 207.396347 100.466034 
L 208.269558 99.519984 
L 209.063385 98.973312 
L 209.77783 98.738323 
L 210.465814 98.7429 
L 211.153798 98.973976 
L 211.868243 99.452954 
L 212.662071 100.268945 
L 213.535281 101.507891 
L 214.487874 103.260683 
L 215.546311 105.687667 
L 216.737053 109.001107 
L 218.060099 113.372954 
L 219.541911 119.075924 
L 221.208949 126.418079 
L 223.114135 135.855471 
L 225.389774 148.309329 
L 228.40632 166.157772 
L 235.8683 210.828949 
L 238.196861 223.149138 
L 240.154969 232.359726 
L 241.848468 239.300856 
L 243.356741 244.578117 
L 244.679787 248.444837 
L 245.870528 251.279577 
L 246.928965 253.265352 
L 247.881559 254.611009 
L 248.728308 255.449639 
L 249.495675 255.915744 
L 250.21012 256.096942 
L 250.898104 256.040508 
L 251.586088 255.75767 
L 252.326994 255.200825 
L 253.120821 254.316017 
L 254.020493 252.957092 
L 254.999547 251.05594 
L 256.084444 248.448345 
L 257.301647 244.918543 
L 258.651154 240.295713 
L 260.159427 234.307779 
L 261.879387 226.524608 
L 263.863956 216.456837 
L 266.245439 203.165587 
L 269.605976 183.015478 
L 275.506762 147.563833 
L 277.967627 134.21988 
L 279.978657 124.472694 
L 281.725078 117.054929 
L 283.259812 111.455375 
L 284.63578 107.23566 
L 285.852982 104.174694 
L 286.964341 101.955448 
L 287.943395 100.469458 
L 288.816606 99.522316 
L 289.610433 98.97464 
L 290.324878 98.738744 
L 291.012862 98.742446 
L 291.700846 98.972649 
L 292.415291 99.450724 
L 293.209119 100.26572 
L 294.082329 101.503586 
L 295.034922 103.255222 
L 296.093359 105.680958 
L 297.284101 108.993048 
L 298.607147 113.363478 
L 300.088959 119.064981 
L 301.755997 126.405662 
L 303.661183 135.841627 
L 305.936822 148.294181 
L 308.953368 166.141636 
L 316.441809 210.961188 
L 318.77037 223.267969 
L 320.728478 232.464234 
L 322.421977 239.391001 
L 323.93025 244.654139 
L 325.253296 248.507598 
L 326.444037 251.329828 
L 327.502474 253.304115 
L 328.455067 254.639206 
L 329.301817 255.468311 
L 330.069184 255.925712 
L 330.783629 256.098774 
L 331.471613 256.0345 
L 332.159597 255.743839 
L 332.900502 255.178615 
L 333.69433 254.284911 
L 334.594001 252.916051 
L 335.573056 251.004319 
L 336.657953 248.385353 
L 337.875156 244.843334 
L 339.224663 240.207756 
L 340.732935 234.206733 
L 342.452895 226.41035 
L 344.437465 216.329899 
L 346.845409 202.873824 
L 350.232407 182.545583 
L 356.027349 147.729295 
L 358.514675 134.23351 
L 360.525705 124.484759 
L 362.272126 117.065393 
L 363.80686 111.464271 
L 365.182828 107.243042 
L 366.40003 104.180664 
L 367.511389 101.960081 
L 368.490443 100.472886 
L 369.363654 99.52465 
L 370.157481 98.975972 
L 370.871926 98.739169 
L 371.55991 98.741996 
L 372.247894 98.971325 
L 372.962339 99.448497 
L 373.756167 100.262498 
L 374.629377 101.499284 
L 375.58197 103.249765 
L 376.640407 105.674252 
L 377.831149 108.984993 
L 379.154195 113.354005 
L 380.636006 119.054041 
L 382.303045 126.393247 
L 384.208231 135.827784 
L 386.48387 148.279035 
L 389.500416 166.125501 
L 396.988857 210.94644 
L 399.317418 223.254719 
L 401.275526 232.452583 
L 402.969025 239.380954 
L 404.477298 244.645669 
L 405.800344 248.500608 
L 406.991085 251.324234 
L 408.049522 253.299803 
L 409.002115 254.636073 
L 409.848865 255.466241 
L 410.616232 255.924614 
L 411.330677 256.098583 
L 412.018661 256.035184 
L 412.706644 255.745396 
L 413.44755 255.181106 
L 414.241378 254.288395 
L 415.141049 252.920643 
L 416.120103 251.010091 
L 417.205001 248.392393 
L 418.422204 244.851737 
L 419.771711 240.21758 
L 421.279983 234.218016 
L 422.999943 226.423107 
L 424.984513 216.344069 
L 427.392456 202.88925 
L 430.779455 182.561852 
L 436.574397 147.744395 
L 439.061723 134.247142 
L 441.072753 124.496826 
L 442.819174 117.075859 
L 444.353908 111.47317 
L 445.729876 107.250426 
L 446.947078 104.186637 
L 447 104.068213 
L 447 104.068213 
" clip-path="url(#g2f0002_aa7fa5_pdab04590fc)" style="fill: none; stroke: #0072b2; stroke-width: 2.5; stroke-linecap: square"/>
   </g>
   <g id="g2f0002_aa7fa5_patch_3">
    <path d="M 230.245354 334.8 
L 230.245354 20.016315 
" style="fill: none; stroke: #000000; stroke-width: 0.8; stroke-linejoin: miter; stroke-linecap: square"/>
   </g>
   <g id="g2f0002_aa7fa5_patch_4">
    <path d="M 447 334.8 
L 447 20.016315 
" style="fill: none"/>
   </g>
   <g id="g2f0002_aa7fa5_patch_5">
    <path d="M 13.490707 177.408158 
L 447 177.408158 
" style="fill: none; stroke: #000000; stroke-width: 0.8; stroke-linejoin: miter; stroke-linecap: square"/>
   </g>
   <g id="g2f0002_aa7fa5_patch_6">
    <path d="M 13.490707 20.016315 
L 447 20.016315 
" style="fill: none"/>
   </g>
  </g>
 </g>
 <defs>
  <clipPath id="g2f0002_aa7fa5_pdab04590fc">
   <rect x="13.490707" y="20.016315" width="433.509293" height="314.783685"/>
  </clipPath>
 </defs>
</svg>
