<?xml version="1.0" encoding="utf-8" standalone="no"?>
<!DOCTYPE svg PUBLIC "-//W3C//DTD SVG 1.1//EN"
  "http://www.w3.org/Graphics/SVG/1.1/DTD/svg11.dtd">
<svg xmlns:xlink="http://www.w3.org/1999/xlink" viewBox="0 0 460.8 345.6" xmlns="http://www.w3.org/2000/svg" version="1.1" class="graph-inline-svg" role="img" aria-label="Tilpasset figur">
 <metadata>
  <rdf:RDF xmlns:dc="http://purl.org/dc/elements/1.1/" xmlns:cc="http://creativecommons.org/ns#" xmlns:rdf="http://www.w3.org/1999/02/22-rdf-syntax-ns#">
   <cc:Work>
    <dc:type rdf:resource="http://purl.org/dc/dcmitype/StillImage"/>
    <dc:date>2026-05-17T13:37:43.601421</dc:date>
    <dc:format>image/svg+xml</dc:format>
    <dc:creator>
     <cc:Agent>
      <dc:title>Matplotlib v3.9.1, https://matplotlib.org/</dc:title>
     </cc:Agent>
    </dc:creator>
   </cc:Work>
  </rdf:RDF>
 </metadata>
 <defs>
  <style type="text/css">*{stroke-linejoin: round; stroke-linecap: butt}</style>
 </defs>
 <g id="g0f0011_3470a1_figure_1">
  <g id="g0f0011_3470a1_patch_1">
   <path d="M 0 345.6 
L 460.8 345.6 
L 460.8 0 
L 0 0 
L 0 345.6 
z
" style="fill: none"/>
  </g>
  <g id="g0f0011_3470a1_axes_1">
   <g id="g0f0011_3470a1_patch_2">
    <path d="M 10.8 334.8 
L 447 334.8 
L 447 20.016315 
L 10.8 20.016315 
L 10.8 334.8 
z
" style="fill: none"/>
   </g>
   <g id="g0f0011_3470a1_matplotlib.axis_1">
    <g id="g0f0011_3470a1_xtick_1">
     <g id="g0f0011_3470a1_line2d_1">
      <path d="M 54.42 334.8 
L 54.42 20.016315 
" clip-path="url(#g0f0011_3470a1_p0e52735443)" style="fill: none; stroke-dasharray: 2.96,1.28; stroke-dashoffset: 0; stroke: #b0b0b0; stroke-opacity: 0.6; stroke-width: 0.8"/>
     </g>
     <g id="g0f0011_3470a1_line2d_2">
      <defs>
       <path id="g0f0011_3470a1_m2fd325ec91" d="M 0 0 
L 0 3.5 
" style="stroke: #000000; stroke-width: 0.8"/>
      </defs>
      <g>
       <use xlink:href="#g0f0011_3470a1_m2fd325ec91" x="54.42" y="177.408158" style="stroke: #000000; stroke-width: 0.8"/>
      </g>
     </g>
     <g id="g0f0011_3470a1_text_1">
      <!-- $\mathdefault{−4}$ -->
      <g transform="translate(42.102209 198.245154) scale(0.2 -0.2)">
       <defs>
        <path id="g0f0011_3470a1_CMSY10-0" d="M 4218 1472 
C 4326 1472 4442 1472 4442 1600 
C 4442 1728 4326 1728 4218 1728 
L 755 1728 
C 646 1728 531 1728 531 1600 
C 531 1472 646 1472 755 1472 
L 4218 1472 
z
" transform="scale(0.015625)"/>
        <path id="g0f0011_3470a1_CMR17-34" d="M 2150 4122 
C 2150 4256 2144 4256 2029 4256 
L 128 1254 
L 128 1088 
L 1779 1088 
L 1779 457 
C 1779 224 1766 160 1318 160 
L 1197 160 
L 1197 0 
C 1402 0 1747 0 1965 0 
C 2182 0 2528 0 2733 0 
L 2733 160 
L 2611 160 
C 2163 160 2150 224 2150 457 
L 2150 1088 
L 2803 1088 
L 2803 1254 
L 2150 1254 
L 2150 4122 
z
M 1798 3703 
L 1798 1254 
L 256 1254 
L 1798 3703 
z
" transform="scale(0.015625)"/>
       </defs>
       <use xlink:href="#g0f0011_3470a1_CMSY10-0" transform="scale(0.996264)"/>
       <use xlink:href="#g0f0011_3470a1_CMR17-34" transform="translate(77.487468 0) scale(0.996264)"/>
      </g>
     </g>
    </g>
    <g id="g0f0011_3470a1_xtick_2">
     <g id="g0f0011_3470a1_line2d_3">
      <path d="M 98.04 334.8 
L 98.04 20.016315 
" clip-path="url(#g0f0011_3470a1_p0e52735443)" style="fill: none; stroke-dasharray: 2.96,1.28; stroke-dashoffset: 0; stroke: #b0b0b0; stroke-opacity: 0.6; stroke-width: 0.8"/>
     </g>
     <g id="g0f0011_3470a1_line2d_4">
      <g>
       <use xlink:href="#g0f0011_3470a1_m2fd325ec91" x="98.04" y="177.408158" style="stroke: #000000; stroke-width: 0.8"/>
      </g>
     </g>
     <g id="g0f0011_3470a1_text_2">
      <!-- $\mathdefault{−3}$ -->
      <g transform="translate(85.722209 198.245154) scale(0.2 -0.2)">
       <defs>
        <path id="g0f0011_3470a1_CMR17-33" d="M 1414 2157 
C 1984 2157 2234 1662 2234 1090 
C 2234 320 1824 25 1453 25 
C 1114 25 563 194 390 693 
C 422 680 454 680 486 680 
C 640 680 755 782 755 948 
C 755 1133 614 1216 486 1216 
C 378 1216 211 1165 211 926 
C 211 335 787 -128 1466 -128 
C 2176 -128 2720 430 2720 1085 
C 2720 1707 2208 2157 1600 2227 
C 2086 2328 2554 2756 2554 3329 
C 2554 3820 2048 4179 1472 4179 
C 890 4179 378 3829 378 3329 
C 378 3110 544 3072 627 3072 
C 762 3072 877 3155 877 3321 
C 877 3486 762 3569 627 3569 
C 602 3569 570 3569 544 3557 
C 730 3959 1235 4032 1459 4032 
C 1683 4032 2106 3925 2106 3320 
C 2106 3143 2080 2828 1862 2550 
C 1670 2304 1453 2304 1242 2284 
C 1210 2284 1062 2269 1037 2269 
C 992 2263 966 2257 966 2208 
C 966 2163 973 2157 1101 2157 
L 1414 2157 
z
" transform="scale(0.015625)"/>
       </defs>
       <use xlink:href="#g0f0011_3470a1_CMSY10-0" transform="scale(0.996264)"/>
       <use xlink:href="#g0f0011_3470a1_CMR17-33" transform="translate(77.487468 0) scale(0.996264)"/>
      </g>
     </g>
    </g>
    <g id="g0f0011_3470a1_xtick_3">
     <g id="g0f0011_3470a1_line2d_5">
      <path d="M 141.66 334.8 
L 141.66 20.016315 
" clip-path="url(#g0f0011_3470a1_p0e52735443)" style="fill: none; stroke-dasharray: 2.96,1.28; stroke-dashoffset: 0; stroke: #b0b0b0; stroke-opacity: 0.6; stroke-width: 0.8"/>
     </g>
     <g id="g0f0011_3470a1_line2d_6">
      <g>
       <use xlink:href="#g0f0011_3470a1_m2fd325ec91" x="141.66" y="177.408158" style="stroke: #000000; stroke-width: 0.8"/>
      </g>
     </g>
     <g id="g0f0011_3470a1_text_3">
      <!-- $\mathdefault{−2}$ -->
      <g transform="translate(129.342209 198.245154) scale(0.2 -0.2)">
       <defs>
        <path id="g0f0011_3470a1_CMR17-32" d="M 2669 989 
L 2554 989 
C 2490 536 2438 459 2413 420 
C 2381 369 1920 369 1830 369 
L 602 369 
C 832 619 1280 1072 1824 1597 
C 2214 1967 2669 2402 2669 3035 
C 2669 3790 2067 4224 1395 4224 
C 691 4224 262 3604 262 3030 
C 262 2780 448 2748 525 2748 
C 589 2748 781 2787 781 3010 
C 781 3207 614 3264 525 3264 
C 486 3264 448 3258 422 3245 
C 544 3790 915 4058 1306 4058 
C 1862 4058 2227 3617 2227 3035 
C 2227 2479 1901 2000 1536 1584 
L 262 146 
L 262 0 
L 2515 0 
L 2669 989 
z
" transform="scale(0.015625)"/>
       </defs>
       <use xlink:href="#g0f0011_3470a1_CMSY10-0" transform="scale(0.996264)"/>
       <use xlink:href="#g0f0011_3470a1_CMR17-32" transform="translate(77.487468 0) scale(0.996264)"/>
      </g>
     </g>
    </g>
    <g id="g0f0011_3470a1_xtick_4">
     <g id="g0f0011_3470a1_line2d_7">
      <path d="M 185.28 334.8 
L 185.28 20.016315 
" clip-path="url(#g0f0011_3470a1_p0e52735443)" style="fill: none; stroke-dasharray: 2.96,1.28; stroke-dashoffset: 0; stroke: #b0b0b0; stroke-opacity: 0.6; stroke-width: 0.8"/>
     </g>
     <g id="g0f0011_3470a1_line2d_8">
      <g>
       <use xlink:href="#g0f0011_3470a1_m2fd325ec91" x="185.28" y="177.408158" style="stroke: #000000; stroke-width: 0.8"/>
      </g>
     </g>
     <g id="g0f0011_3470a1_text_4">
      <!-- $\mathdefault{−1}$ -->
      <g transform="translate(172.962209 198.245154) scale(0.2 -0.2)">
       <defs>
        <path id="g0f0011_3470a1_CMR17-31" d="M 1702 4058 
C 1702 4192 1696 4192 1606 4192 
C 1357 3916 979 3827 621 3827 
C 602 3827 570 3827 563 3808 
C 557 3795 557 3782 557 3648 
C 755 3648 1088 3686 1344 3839 
L 1344 461 
C 1344 236 1331 160 781 160 
L 589 160 
L 589 0 
C 896 0 1216 0 1523 0 
C 1830 0 2150 0 2458 0 
L 2458 160 
L 2266 160 
C 1715 160 1702 230 1702 458 
L 1702 4058 
z
" transform="scale(0.015625)"/>
       </defs>
       <use xlink:href="#g0f0011_3470a1_CMSY10-0" transform="scale(0.996264)"/>
       <use xlink:href="#g0f0011_3470a1_CMR17-31" transform="translate(77.487468 0) scale(0.996264)"/>
      </g>
     </g>
    </g>
    <g id="g0f0011_3470a1_xtick_5">
     <g id="g0f0011_3470a1_line2d_9">
      <path d="M 272.52 334.8 
L 272.52 20.016315 
" clip-path="url(#g0f0011_3470a1_p0e52735443)" style="fill: none; stroke-dasharray: 2.96,1.28; stroke-dashoffset: 0; stroke: #b0b0b0; stroke-opacity: 0.6; stroke-width: 0.8"/>
     </g>
     <g id="g0f0011_3470a1_line2d_10">
      <g>
       <use xlink:href="#g0f0011_3470a1_m2fd325ec91" x="272.52" y="177.408158" style="stroke: #000000; stroke-width: 0.8"/>
      </g>
     </g>
     <g id="g0f0011_3470a1_text_5">
      <!-- $\mathdefault{1}$ -->
      <g transform="translate(267.950952 198.245154) scale(0.2 -0.2)">
       <use xlink:href="#g0f0011_3470a1_CMR17-31" transform="scale(0.996264)"/>
      </g>
     </g>
    </g>
    <g id="g0f0011_3470a1_xtick_6">
     <g id="g0f0011_3470a1_line2d_11">
      <path d="M 316.14 334.8 
L 316.14 20.016315 
" clip-path="url(#g0f0011_3470a1_p0e52735443)" style="fill: none; stroke-dasharray: 2.96,1.28; stroke-dashoffset: 0; stroke: #b0b0b0; stroke-opacity: 0.6; stroke-width: 0.8"/>
     </g>
     <g id="g0f0011_3470a1_line2d_12">
      <g>
       <use xlink:href="#g0f0011_3470a1_m2fd325ec91" x="316.14" y="177.408158" style="stroke: #000000; stroke-width: 0.8"/>
      </g>
     </g>
     <g id="g0f0011_3470a1_text_6">
      <!-- $\mathdefault{2}$ -->
      <g transform="translate(311.570952 198.245154) scale(0.2 -0.2)">
       <use xlink:href="#g0f0011_3470a1_CMR17-32" transform="scale(0.996264)"/>
      </g>
     </g>
    </g>
    <g id="g0f0011_3470a1_xtick_7">
     <g id="g0f0011_3470a1_line2d_13">
      <path d="M 359.76 334.8 
L 359.76 20.016315 
" clip-path="url(#g0f0011_3470a1_p0e52735443)" style="fill: none; stroke-dasharray: 2.96,1.28; stroke-dashoffset: 0; stroke: #b0b0b0; stroke-opacity: 0.6; stroke-width: 0.8"/>
     </g>
     <g id="g0f0011_3470a1_line2d_14">
      <g>
       <use xlink:href="#g0f0011_3470a1_m2fd325ec91" x="359.76" y="177.408158" style="stroke: #000000; stroke-width: 0.8"/>
      </g>
     </g>
     <g id="g0f0011_3470a1_text_7">
      <!-- $\mathdefault{3}$ -->
      <g transform="translate(355.190952 198.245154) scale(0.2 -0.2)">
       <use xlink:href="#g0f0011_3470a1_CMR17-33" transform="scale(0.996264)"/>
      </g>
     </g>
    </g>
    <g id="g0f0011_3470a1_xtick_8">
     <g id="g0f0011_3470a1_line2d_15">
      <path d="M 403.38 334.8 
L 403.38 20.016315 
" clip-path="url(#g0f0011_3470a1_p0e52735443)" style="fill: none; stroke-dasharray: 2.96,1.28; stroke-dashoffset: 0; stroke: #b0b0b0; stroke-opacity: 0.6; stroke-width: 0.8"/>
     </g>
     <g id="g0f0011_3470a1_line2d_16">
      <g>
       <use xlink:href="#g0f0011_3470a1_m2fd325ec91" x="403.38" y="177.408158" style="stroke: #000000; stroke-width: 0.8"/>
      </g>
     </g>
     <g id="g0f0011_3470a1_text_8">
      <!-- $\mathdefault{4}$ -->
      <g transform="translate(398.810952 198.245154) scale(0.2 -0.2)">
       <use xlink:href="#g0f0011_3470a1_CMR17-34" transform="scale(0.996264)"/>
      </g>
     </g>
    </g>
    <g id="g0f0011_3470a1_text_9">
     <!-- $x$ -->
     <g transform="translate(435.913188 219.957785) scale(0.2 -0.2)">
      <defs>
       <path id="g0f0011_3470a1_CMMI12-78" d="M 3034 2606 
C 2829 2567 2752 2414 2752 2293 
C 2752 2139 2874 2088 2963 2088 
C 3155 2088 3290 2254 3290 2427 
C 3290 2695 2982 2816 2714 2816 
C 2323 2816 2106 2433 2048 2312 
C 1901 2816 1504 2816 1389 2816 
C 736 2816 390 1980 390 1839 
C 390 1814 416 1782 461 1782 
C 512 1782 525 1820 538 1846 
C 755 2555 1184 2689 1370 2689 
C 1658 2689 1715 2420 1715 2267 
C 1715 2127 1677 1980 1600 1673 
L 1382 798 
C 1286 415 1101 64 762 64 
C 730 64 570 64 435 147 
C 666 192 717 383 717 460 
C 717 588 621 664 499 664 
C 346 664 179 530 179 326 
C 179 57 480 -64 755 -64 
C 1062 -64 1280 179 1414 441 
C 1517 64 1837 -64 2074 -64 
C 2726 -64 3072 773 3072 913 
C 3072 945 3046 971 3008 971 
C 2950 971 2944 939 2925 888 
C 2752 326 2381 64 2093 64 
C 1869 64 1747 230 1747 492 
C 1747 632 1773 734 1875 1156 
L 2099 2024 
C 2195 2408 2413 2689 2707 2689 
C 2720 2689 2899 2689 3034 2606 
z
" transform="scale(0.015625)"/>
      </defs>
      <use xlink:href="#g0f0011_3470a1_CMMI12-78" transform="scale(0.996264)"/>
     </g>
    </g>
   </g>
   <g id="g0f0011_3470a1_matplotlib.axis_2">
    <g id="g0f0011_3470a1_ytick_1">
     <g id="g0f0011_3470a1_line2d_17">
      <path d="M 10.8 319.060816 
L 447 319.060816 
" clip-path="url(#g0f0011_3470a1_p0e52735443)" style="fill: none; stroke-dasharray: 2.96,1.28; stroke-dashoffset: 0; stroke: #b0b0b0; stroke-opacity: 0.6; stroke-width: 0.8"/>
     </g>
     <g id="g0f0011_3470a1_line2d_18">
      <defs>
       <path id="g0f0011_3470a1_m783fceb45c" d="M 0 0 
L -3.5 0 
" style="stroke: #000000; stroke-width: 0.8"/>
      </defs>
      <g>
       <use xlink:href="#g0f0011_3470a1_m783fceb45c" x="228.9" y="319.060816" style="stroke: #000000; stroke-width: 0.8"/>
      </g>
     </g>
     <g id="g0f0011_3470a1_text_10">
      <!-- $\mathdefault{−9}$ -->
      <g transform="translate(197.264417 325.979314) scale(0.2 -0.2)">
       <defs>
        <path id="g0f0011_3470a1_CMR17-39" d="M 2253 1864 
C 2253 464 1670 31 1190 31 
C 1043 31 685 31 538 294 
C 704 268 826 357 826 518 
C 826 692 685 749 595 749 
C 538 749 365 723 365 506 
C 365 71 742 -128 1203 -128 
C 1939 -128 2688 674 2688 2073 
C 2688 3817 1971 4179 1485 4179 
C 851 4179 243 3628 243 2778 
C 243 1991 762 1408 1414 1408 
C 1952 1408 2189 1903 2253 2112 
L 2253 1864 
z
M 1427 1510 
C 1254 1510 1011 1542 813 1922 
C 678 2169 678 2461 678 2771 
C 678 3146 678 3405 858 3684 
C 947 3817 1114 4032 1485 4032 
C 2240 4032 2240 2885 2240 2632 
C 2240 2182 2035 1510 1427 1510 
z
" transform="scale(0.015625)"/>
       </defs>
       <use xlink:href="#g0f0011_3470a1_CMSY10-0" transform="scale(0.996264)"/>
       <use xlink:href="#g0f0011_3470a1_CMR17-39" transform="translate(77.487468 0) scale(0.996264)"/>
      </g>
     </g>
    </g>
    <g id="g0f0011_3470a1_ytick_2">
     <g id="g0f0011_3470a1_line2d_19">
      <path d="M 10.8 303.321632 
L 447 303.321632 
" clip-path="url(#g0f0011_3470a1_p0e52735443)" style="fill: none; stroke-dasharray: 2.96,1.28; stroke-dashoffset: 0; stroke: #b0b0b0; stroke-opacity: 0.6; stroke-width: 0.8"/>
     </g>
     <g id="g0f0011_3470a1_line2d_20">
      <g>
       <use xlink:href="#g0f0011_3470a1_m783fceb45c" x="228.9" y="303.321632" style="stroke: #000000; stroke-width: 0.8"/>
      </g>
     </g>
     <g id="g0f0011_3470a1_text_11">
      <!-- $\mathdefault{−8}$ -->
      <g transform="translate(197.264417 310.24013) scale(0.2 -0.2)">
       <defs>
        <path id="g0f0011_3470a1_CMR17-38" d="M 1741 2264 
C 2144 2467 2554 2773 2554 3263 
C 2554 3841 1990 4179 1472 4179 
C 890 4179 378 3759 378 3180 
C 378 3021 416 2747 666 2505 
C 730 2442 998 2251 1171 2130 
C 883 1983 211 1634 211 934 
C 211 279 838 -128 1459 -128 
C 2144 -128 2720 362 2720 1010 
C 2720 1590 2330 1857 2074 2029 
L 1741 2264 
z
M 902 2822 
C 851 2854 595 3051 595 3351 
C 595 3739 998 4032 1459 4032 
C 1965 4032 2336 3676 2336 3262 
C 2336 2669 1670 2331 1638 2331 
C 1632 2331 1626 2331 1574 2370 
L 902 2822 
z
M 2080 1519 
C 2176 1449 2483 1240 2483 851 
C 2483 381 2010 25 1472 25 
C 890 25 448 438 448 940 
C 448 1443 838 1862 1280 2060 
L 2080 1519 
z
" transform="scale(0.015625)"/>
       </defs>
       <use xlink:href="#g0f0011_3470a1_CMSY10-0" transform="scale(0.996264)"/>
       <use xlink:href="#g0f0011_3470a1_CMR17-38" transform="translate(77.487468 0) scale(0.996264)"/>
      </g>
     </g>
    </g>
    <g id="g0f0011_3470a1_ytick_3">
     <g id="g0f0011_3470a1_line2d_21">
      <path d="M 10.8 287.582447 
L 447 287.582447 
" clip-path="url(#g0f0011_3470a1_p0e52735443)" style="fill: none; stroke-dasharray: 2.96,1.28; stroke-dashoffset: 0; stroke: #b0b0b0; stroke-opacity: 0.6; stroke-width: 0.8"/>
     </g>
     <g id="g0f0011_3470a1_line2d_22">
      <g>
       <use xlink:href="#g0f0011_3470a1_m783fceb45c" x="228.9" y="287.582447" style="stroke: #000000; stroke-width: 0.8"/>
      </g>
     </g>
     <g id="g0f0011_3470a1_text_12">
      <!-- $\mathdefault{−7}$ -->
      <g transform="translate(197.264417 294.500946) scale(0.2 -0.2)">
       <defs>
        <path id="g0f0011_3470a1_CMR17-37" d="M 2886 3941 
L 2886 4081 
L 1382 4081 
C 634 4081 621 4165 595 4288 
L 480 4288 
L 294 3094 
L 410 3094 
C 429 3215 474 3540 550 3661 
C 589 3712 1062 3712 1171 3712 
L 2579 3712 
L 1869 2661 
C 1395 1954 1069 999 1069 165 
C 1069 89 1069 -128 1299 -128 
C 1530 -128 1530 89 1530 171 
L 1530 465 
C 1530 1508 1709 2196 2003 2636 
L 2886 3941 
z
" transform="scale(0.015625)"/>
       </defs>
       <use xlink:href="#g0f0011_3470a1_CMSY10-0" transform="scale(0.996264)"/>
       <use xlink:href="#g0f0011_3470a1_CMR17-37" transform="translate(77.487468 0) scale(0.996264)"/>
      </g>
     </g>
    </g>
    <g id="g0f0011_3470a1_ytick_4">
     <g id="g0f0011_3470a1_line2d_23">
      <path d="M 10.8 271.843263 
L 447 271.843263 
" clip-path="url(#g0f0011_3470a1_p0e52735443)" style="fill: none; stroke-dasharray: 2.96,1.28; stroke-dashoffset: 0; stroke: #b0b0b0; stroke-opacity: 0.6; stroke-width: 0.8"/>
     </g>
     <g id="g0f0011_3470a1_line2d_24">
      <g>
       <use xlink:href="#g0f0011_3470a1_m783fceb45c" x="228.9" y="271.843263" style="stroke: #000000; stroke-width: 0.8"/>
      </g>
     </g>
     <g id="g0f0011_3470a1_text_13">
      <!-- $\mathdefault{−6}$ -->
      <g transform="translate(197.264417 278.761761) scale(0.2 -0.2)">
       <defs>
        <path id="g0f0011_3470a1_CMR17-36" d="M 678 2176 
C 678 3690 1395 4032 1811 4032 
C 1946 4032 2272 4009 2400 3776 
C 2298 3776 2106 3776 2106 3553 
C 2106 3381 2246 3323 2336 3323 
C 2394 3323 2566 3348 2566 3560 
C 2566 3954 2246 4179 1805 4179 
C 1043 4179 243 3390 243 1984 
C 243 253 966 -128 1478 -128 
C 2099 -128 2688 427 2688 1283 
C 2688 2081 2170 2662 1517 2662 
C 1126 2662 838 2407 678 1960 
L 678 2176 
z
M 1478 25 
C 691 25 691 1200 691 1436 
C 691 1896 909 2560 1504 2560 
C 1613 2560 1926 2560 2138 2120 
C 2253 1870 2253 1609 2253 1289 
C 2253 944 2253 690 2118 434 
C 1978 171 1773 25 1478 25 
z
" transform="scale(0.015625)"/>
       </defs>
       <use xlink:href="#g0f0011_3470a1_CMSY10-0" transform="scale(0.996264)"/>
       <use xlink:href="#g0f0011_3470a1_CMR17-36" transform="translate(77.487468 0) scale(0.996264)"/>
      </g>
     </g>
    </g>
    <g id="g0f0011_3470a1_ytick_5">
     <g id="g0f0011_3470a1_line2d_25">
      <path d="M 10.8 256.104079 
L 447 256.104079 
" clip-path="url(#g0f0011_3470a1_p0e52735443)" style="fill: none; stroke-dasharray: 2.96,1.28; stroke-dashoffset: 0; stroke: #b0b0b0; stroke-opacity: 0.6; stroke-width: 0.8"/>
     </g>
     <g id="g0f0011_3470a1_line2d_26">
      <g>
       <use xlink:href="#g0f0011_3470a1_m783fceb45c" x="228.9" y="256.104079" style="stroke: #000000; stroke-width: 0.8"/>
      </g>
     </g>
     <g id="g0f0011_3470a1_text_14">
      <!-- $\mathdefault{−5}$ -->
      <g transform="translate(197.264417 263.022577) scale(0.2 -0.2)">
       <defs>
        <path id="g0f0011_3470a1_CMR17-35" d="M 730 3692 
C 794 3666 1056 3584 1325 3584 
C 1920 3584 2246 3911 2432 4100 
C 2432 4157 2432 4192 2394 4192 
C 2387 4192 2374 4192 2323 4163 
C 2099 4058 1837 3973 1517 3973 
C 1325 3973 1037 3999 723 4139 
C 653 4171 640 4171 634 4171 
C 602 4171 595 4164 595 4037 
L 595 2203 
C 595 2089 595 2057 659 2057 
C 691 2057 704 2070 736 2114 
C 941 2401 1222 2522 1542 2522 
C 1766 2522 2246 2382 2246 1289 
C 2246 1085 2246 715 2054 421 
C 1894 159 1645 25 1370 25 
C 947 25 518 320 403 814 
C 429 807 480 795 506 795 
C 589 795 749 840 749 1038 
C 749 1210 627 1280 506 1280 
C 358 1280 262 1190 262 1011 
C 262 454 704 -128 1382 -128 
C 2042 -128 2669 440 2669 1264 
C 2669 2030 2170 2624 1549 2624 
C 1222 2624 947 2503 730 2274 
L 730 3692 
z
" transform="scale(0.015625)"/>
       </defs>
       <use xlink:href="#g0f0011_3470a1_CMSY10-0" transform="scale(0.996264)"/>
       <use xlink:href="#g0f0011_3470a1_CMR17-35" transform="translate(77.487468 0) scale(0.996264)"/>
      </g>
     </g>
    </g>
    <g id="g0f0011_3470a1_ytick_6">
     <g id="g0f0011_3470a1_line2d_27">
      <path d="M 10.8 240.364895 
L 447 240.364895 
" clip-path="url(#g0f0011_3470a1_p0e52735443)" style="fill: none; stroke-dasharray: 2.96,1.28; stroke-dashoffset: 0; stroke: #b0b0b0; stroke-opacity: 0.6; stroke-width: 0.8"/>
     </g>
     <g id="g0f0011_3470a1_line2d_28">
      <g>
       <use xlink:href="#g0f0011_3470a1_m783fceb45c" x="228.9" y="240.364895" style="stroke: #000000; stroke-width: 0.8"/>
      </g>
     </g>
     <g id="g0f0011_3470a1_text_15">
      <!-- $\mathdefault{−4}$ -->
      <g transform="translate(197.264417 247.283393) scale(0.2 -0.2)">
       <use xlink:href="#g0f0011_3470a1_CMSY10-0" transform="scale(0.996264)"/>
       <use xlink:href="#g0f0011_3470a1_CMR17-34" transform="translate(77.487468 0) scale(0.996264)"/>
      </g>
     </g>
    </g>
    <g id="g0f0011_3470a1_ytick_7">
     <g id="g0f0011_3470a1_line2d_29">
      <path d="M 10.8 224.62571 
L 447 224.62571 
" clip-path="url(#g0f0011_3470a1_p0e52735443)" style="fill: none; stroke-dasharray: 2.96,1.28; stroke-dashoffset: 0; stroke: #b0b0b0; stroke-opacity: 0.6; stroke-width: 0.8"/>
     </g>
     <g id="g0f0011_3470a1_line2d_30">
      <g>
       <use xlink:href="#g0f0011_3470a1_m783fceb45c" x="228.9" y="224.62571" style="stroke: #000000; stroke-width: 0.8"/>
      </g>
     </g>
     <g id="g0f0011_3470a1_text_16">
      <!-- $\mathdefault{−3}$ -->
      <g transform="translate(197.264417 231.544209) scale(0.2 -0.2)">
       <use xlink:href="#g0f0011_3470a1_CMSY10-0" transform="scale(0.996264)"/>
       <use xlink:href="#g0f0011_3470a1_CMR17-33" transform="translate(77.487468 0) scale(0.996264)"/>
      </g>
     </g>
    </g>
    <g id="g0f0011_3470a1_ytick_8">
     <g id="g0f0011_3470a1_line2d_31">
      <path d="M 10.8 208.886526 
L 447 208.886526 
" clip-path="url(#g0f0011_3470a1_p0e52735443)" style="fill: none; stroke-dasharray: 2.96,1.28; stroke-dashoffset: 0; stroke: #b0b0b0; stroke-opacity: 0.6; stroke-width: 0.8"/>
     </g>
     <g id="g0f0011_3470a1_line2d_32">
      <g>
       <use xlink:href="#g0f0011_3470a1_m783fceb45c" x="228.9" y="208.886526" style="stroke: #000000; stroke-width: 0.8"/>
      </g>
     </g>
     <g id="g0f0011_3470a1_text_17">
      <!-- $\mathdefault{−2}$ -->
      <g transform="translate(197.264417 215.805024) scale(0.2 -0.2)">
       <use xlink:href="#g0f0011_3470a1_CMSY10-0" transform="scale(0.996264)"/>
       <use xlink:href="#g0f0011_3470a1_CMR17-32" transform="translate(77.487468 0) scale(0.996264)"/>
      </g>
     </g>
    </g>
    <g id="g0f0011_3470a1_ytick_9">
     <g id="g0f0011_3470a1_line2d_33">
      <path d="M 10.8 193.147342 
L 447 193.147342 
" clip-path="url(#g0f0011_3470a1_p0e52735443)" style="fill: none; stroke-dasharray: 2.96,1.28; stroke-dashoffset: 0; stroke: #b0b0b0; stroke-opacity: 0.6; stroke-width: 0.8"/>
     </g>
     <g id="g0f0011_3470a1_line2d_34">
      <g>
       <use xlink:href="#g0f0011_3470a1_m783fceb45c" x="228.9" y="193.147342" style="stroke: #000000; stroke-width: 0.8"/>
      </g>
     </g>
     <g id="g0f0011_3470a1_text_18">
      <!-- $\mathdefault{−1}$ -->
      <g transform="translate(197.264417 200.06584) scale(0.2 -0.2)">
       <use xlink:href="#g0f0011_3470a1_CMSY10-0" transform="scale(0.996264)"/>
       <use xlink:href="#g0f0011_3470a1_CMR17-31" transform="translate(77.487468 0) scale(0.996264)"/>
      </g>
     </g>
    </g>
    <g id="g0f0011_3470a1_ytick_10">
     <g id="g0f0011_3470a1_line2d_35">
      <path d="M 10.8 161.668973 
L 447 161.668973 
" clip-path="url(#g0f0011_3470a1_p0e52735443)" style="fill: none; stroke-dasharray: 2.96,1.28; stroke-dashoffset: 0; stroke: #b0b0b0; stroke-opacity: 0.6; stroke-width: 0.8"/>
     </g>
     <g id="g0f0011_3470a1_line2d_36">
      <g>
       <use xlink:href="#g0f0011_3470a1_m783fceb45c" x="228.9" y="161.668973" style="stroke: #000000; stroke-width: 0.8"/>
      </g>
     </g>
     <g id="g0f0011_3470a1_text_19">
      <!-- $\mathdefault{1}$ -->
      <g transform="translate(212.761905 168.587472) scale(0.2 -0.2)">
       <use xlink:href="#g0f0011_3470a1_CMR17-31" transform="scale(0.996264)"/>
      </g>
     </g>
    </g>
    <g id="g0f0011_3470a1_ytick_11">
     <g id="g0f0011_3470a1_line2d_37">
      <path d="M 10.8 145.929789 
L 447 145.929789 
" clip-path="url(#g0f0011_3470a1_p0e52735443)" style="fill: none; stroke-dasharray: 2.96,1.28; stroke-dashoffset: 0; stroke: #b0b0b0; stroke-opacity: 0.6; stroke-width: 0.8"/>
     </g>
     <g id="g0f0011_3470a1_line2d_38">
      <g>
       <use xlink:href="#g0f0011_3470a1_m783fceb45c" x="228.9" y="145.929789" style="stroke: #000000; stroke-width: 0.8"/>
      </g>
     </g>
     <g id="g0f0011_3470a1_text_20">
      <!-- $\mathdefault{2}$ -->
      <g transform="translate(212.761905 152.848287) scale(0.2 -0.2)">
       <use xlink:href="#g0f0011_3470a1_CMR17-32" transform="scale(0.996264)"/>
      </g>
     </g>
    </g>
    <g id="g0f0011_3470a1_ytick_12">
     <g id="g0f0011_3470a1_line2d_39">
      <path d="M 10.8 130.190605 
L 447 130.190605 
" clip-path="url(#g0f0011_3470a1_p0e52735443)" style="fill: none; stroke-dasharray: 2.96,1.28; stroke-dashoffset: 0; stroke: #b0b0b0; stroke-opacity: 0.6; stroke-width: 0.8"/>
     </g>
     <g id="g0f0011_3470a1_line2d_40">
      <g>
       <use xlink:href="#g0f0011_3470a1_m783fceb45c" x="228.9" y="130.190605" style="stroke: #000000; stroke-width: 0.8"/>
      </g>
     </g>
     <g id="g0f0011_3470a1_text_21">
      <!-- $\mathdefault{3}$ -->
      <g transform="translate(212.761905 137.109103) scale(0.2 -0.2)">
       <use xlink:href="#g0f0011_3470a1_CMR17-33" transform="scale(0.996264)"/>
      </g>
     </g>
    </g>
    <g id="g0f0011_3470a1_ytick_13">
     <g id="g0f0011_3470a1_line2d_41">
      <path d="M 10.8 114.451421 
L 447 114.451421 
" clip-path="url(#g0f0011_3470a1_p0e52735443)" style="fill: none; stroke-dasharray: 2.96,1.28; stroke-dashoffset: 0; stroke: #b0b0b0; stroke-opacity: 0.6; stroke-width: 0.8"/>
     </g>
     <g id="g0f0011_3470a1_line2d_42">
      <g>
       <use xlink:href="#g0f0011_3470a1_m783fceb45c" x="228.9" y="114.451421" style="stroke: #000000; stroke-width: 0.8"/>
      </g>
     </g>
     <g id="g0f0011_3470a1_text_22">
      <!-- $\mathdefault{4}$ -->
      <g transform="translate(212.761905 121.369919) scale(0.2 -0.2)">
       <use xlink:href="#g0f0011_3470a1_CMR17-34" transform="scale(0.996264)"/>
      </g>
     </g>
    </g>
    <g id="g0f0011_3470a1_ytick_14">
     <g id="g0f0011_3470a1_line2d_43">
      <path d="M 10.8 98.712236 
L 447 98.712236 
" clip-path="url(#g0f0011_3470a1_p0e52735443)" style="fill: none; stroke-dasharray: 2.96,1.28; stroke-dashoffset: 0; stroke: #b0b0b0; stroke-opacity: 0.6; stroke-width: 0.8"/>
     </g>
     <g id="g0f0011_3470a1_line2d_44">
      <g>
       <use xlink:href="#g0f0011_3470a1_m783fceb45c" x="228.9" y="98.712236" style="stroke: #000000; stroke-width: 0.8"/>
      </g>
     </g>
     <g id="g0f0011_3470a1_text_23">
      <!-- $\mathdefault{5}$ -->
      <g transform="translate(212.761905 105.630735) scale(0.2 -0.2)">
       <use xlink:href="#g0f0011_3470a1_CMR17-35" transform="scale(0.996264)"/>
      </g>
     </g>
    </g>
    <g id="g0f0011_3470a1_ytick_15">
     <g id="g0f0011_3470a1_line2d_45">
      <path d="M 10.8 82.973052 
L 447 82.973052 
" clip-path="url(#g0f0011_3470a1_p0e52735443)" style="fill: none; stroke-dasharray: 2.96,1.28; stroke-dashoffset: 0; stroke: #b0b0b0; stroke-opacity: 0.6; stroke-width: 0.8"/>
     </g>
     <g id="g0f0011_3470a1_line2d_46">
      <g>
       <use xlink:href="#g0f0011_3470a1_m783fceb45c" x="228.9" y="82.973052" style="stroke: #000000; stroke-width: 0.8"/>
      </g>
     </g>
     <g id="g0f0011_3470a1_text_24">
      <!-- $\mathdefault{6}$ -->
      <g transform="translate(212.761905 89.891551) scale(0.2 -0.2)">
       <use xlink:href="#g0f0011_3470a1_CMR17-36" transform="scale(0.996264)"/>
      </g>
     </g>
    </g>
    <g id="g0f0011_3470a1_ytick_16">
     <g id="g0f0011_3470a1_line2d_47">
      <path d="M 10.8 67.233868 
L 447 67.233868 
" clip-path="url(#g0f0011_3470a1_p0e52735443)" style="fill: none; stroke-dasharray: 2.96,1.28; stroke-dashoffset: 0; stroke: #b0b0b0; stroke-opacity: 0.6; stroke-width: 0.8"/>
     </g>
     <g id="g0f0011_3470a1_line2d_48">
      <g>
       <use xlink:href="#g0f0011_3470a1_m783fceb45c" x="228.9" y="67.233868" style="stroke: #000000; stroke-width: 0.8"/>
      </g>
     </g>
     <g id="g0f0011_3470a1_text_25">
      <!-- $\mathdefault{7}$ -->
      <g transform="translate(212.761905 74.152366) scale(0.2 -0.2)">
       <use xlink:href="#g0f0011_3470a1_CMR17-37" transform="scale(0.996264)"/>
      </g>
     </g>
    </g>
    <g id="g0f0011_3470a1_ytick_17">
     <g id="g0f0011_3470a1_line2d_49">
      <path d="M 10.8 51.494684 
L 447 51.494684 
" clip-path="url(#g0f0011_3470a1_p0e52735443)" style="fill: none; stroke-dasharray: 2.96,1.28; stroke-dashoffset: 0; stroke: #b0b0b0; stroke-opacity: 0.6; stroke-width: 0.8"/>
     </g>
     <g id="g0f0011_3470a1_line2d_50">
      <g>
       <use xlink:href="#g0f0011_3470a1_m783fceb45c" x="228.9" y="51.494684" style="stroke: #000000; stroke-width: 0.8"/>
      </g>
     </g>
     <g id="g0f0011_3470a1_text_26">
      <!-- $\mathdefault{8}$ -->
      <g transform="translate(212.761905 58.413182) scale(0.2 -0.2)">
       <use xlink:href="#g0f0011_3470a1_CMR17-38" transform="scale(0.996264)"/>
      </g>
     </g>
    </g>
    <g id="g0f0011_3470a1_ytick_18">
     <g id="g0f0011_3470a1_line2d_51">
      <path d="M 10.8 35.755499 
L 447 35.755499 
" clip-path="url(#g0f0011_3470a1_p0e52735443)" style="fill: none; stroke-dasharray: 2.96,1.28; stroke-dashoffset: 0; stroke: #b0b0b0; stroke-opacity: 0.6; stroke-width: 0.8"/>
     </g>
     <g id="g0f0011_3470a1_line2d_52">
      <g>
       <use xlink:href="#g0f0011_3470a1_m783fceb45c" x="228.9" y="35.755499" style="stroke: #000000; stroke-width: 0.8"/>
      </g>
     </g>
     <g id="g0f0011_3470a1_text_27">
      <!-- $\mathdefault{9}$ -->
      <g transform="translate(212.761905 42.673998) scale(0.2 -0.2)">
       <use xlink:href="#g0f0011_3470a1_CMR17-39" transform="scale(0.996264)"/>
      </g>
     </g>
    </g>
    <g id="g0f0011_3470a1_text_28">
     <!-- $y$ -->
     <g transform="translate(183.751583 16.140682) scale(0.2 -0.2)">
      <defs>
       <path id="g0f0011_3470a1_CMMI12-79" d="M 1683 -700 
C 1510 -939 1261 -1152 947 -1152 
C 870 -1152 563 -1152 467 -889 
C 486 -895 518 -895 531 -895 
C 723 -895 851 -729 851 -582 
C 851 -435 730 -384 634 -384 
C 531 -384 307 -458 307 -759 
C 307 -1071 582 -1286 947 -1286 
C 1587 -1286 2234 -700 2413 6 
L 3040 2485 
C 3046 2517 3059 2556 3059 2594 
C 3059 2689 2982 2753 2886 2753 
C 2829 2753 2694 2727 2643 2535 
L 2170 658 
C 2138 543 2138 530 2086 460 
C 1958 281 1747 64 1440 64 
C 1082 64 1050 415 1050 588 
C 1050 952 1222 1443 1395 1903 
C 1466 2088 1504 2178 1504 2305 
C 1504 2574 1312 2816 998 2816 
C 410 2816 173 1890 173 1839 
C 173 1814 198 1782 243 1782 
C 301 1782 307 1807 333 1897 
C 486 2433 730 2689 979 2689 
C 1037 2689 1146 2689 1146 2478 
C 1146 2312 1075 2127 979 1884 
C 666 1047 666 837 666 683 
C 666 77 1101 -64 1421 -64 
C 1606 -64 1837 -6 2061 230 
L 2067 224 
C 1971 -147 1907 -392 1683 -700 
z
" transform="scale(0.015625)"/>
      </defs>
      <use xlink:href="#g0f0011_3470a1_CMMI12-79" transform="scale(0.996264)"/>
     </g>
    </g>
   </g>
   <g id="g0f0011_3470a1_line2d_53">
    <defs>
     <path id="g0f0011_3470a1_ma916669305" d="M 3 0 
L -3 -3 
L -3 3 
z
" style="stroke: #000000; stroke-linejoin: miter"/>
    </defs>
    <g>
     <use xlink:href="#g0f0011_3470a1_ma916669305" x="447" y="177.408158" style="stroke: #000000; stroke-linejoin: miter"/>
    </g>
   </g>
   <g id="g0f0011_3470a1_line2d_54">
    <defs>
     <path id="g0f0011_3470a1_med3749f12c" d="M 0 -3 
L -3 3 
L 3 3 
z
" style="stroke: #000000; stroke-linejoin: miter"/>
    </defs>
    <g>
     <use xlink:href="#g0f0011_3470a1_med3749f12c" x="228.9" y="20.016315" style="stroke: #000000; stroke-linejoin: miter"/>
    </g>
   </g>
   <g id="g0f0011_3470a1_line2d_55">
    <path d="M 107.817517 -1 
L 113.78612 13.477837 
L 119.67028 27.173926 
L 125.44794 40.06477 
L 131.119099 52.180909 
L 136.683758 63.552321 
L 142.168541 74.259191 
L 147.546823 84.274873 
L 152.818605 93.627793 
L 158.010511 102.389614 
L 163.095916 110.539374 
L 168.074821 118.103954 
L 172.973851 125.146877 
L 177.76638 131.652481 
L 182.479033 137.679118 
L 187.111811 143.245469 
L 191.638088 148.34093 
L 196.08449 153.01645 
L 200.451016 157.289656 
L 204.737667 161.17786 
L 208.971068 164.719401 
L 213.124593 167.905963 
L 217.198242 170.754011 
L 221.218641 173.295648 
L 225.18579 175.5415 
L 229.099689 177.50205 
L 232.960337 179.187644 
L 236.767735 180.608485 
L 240.548508 181.782073 
L 244.27603 182.70762 
L 247.976927 183.399143 
L 251.651199 183.861534 
L 255.325472 184.100575 
L 258.999744 184.116268 
L 262.674016 183.908612 
L 266.348288 183.477608 
L 270.02256 182.823255 
L 273.723457 181.938377 
L 277.45098 180.818085 
L 281.205127 179.457453 
L 285.012525 177.839371 
L 288.846548 175.967626 
L 292.733822 173.821602 
L 296.674345 171.391026 
L 300.668119 168.665481 
L 304.741769 165.613576 
L 308.868669 162.241829 
L 313.075444 158.514823 
L 317.33547 154.442278 
L 321.675371 149.984638 
L 326.095147 145.124698 
L 330.594799 139.844937 
L 335.174327 134.127515 
L 339.860355 127.917971 
L 344.626259 121.229954 
L 349.472038 114.044568 
L 354.424318 106.299882 
L 359.456473 98.01467 
L 364.595129 89.121778 
L 369.813661 79.643558 
L 375.138693 69.507475 
L 380.570225 58.685382 
L 386.081633 47.205247 
L 391.699542 34.986079 
L 397.423952 21.998182 
L 403.254862 8.211299 
L 407.024021 -1 
L 407.024021 -1 
" clip-path="url(#g0f0011_3470a1_p0e52735443)" style="fill: none; stroke: #0072b2; stroke-width: 2.5; stroke-linecap: square"/>
   </g>
   <g id="g0f0011_3470a1_patch_3">
    <path d="M 228.9 334.8 
L 228.9 20.016315 
" style="fill: none; stroke: #000000; stroke-width: 0.8; stroke-linejoin: miter; stroke-linecap: square"/>
   </g>
   <g id="g0f0011_3470a1_patch_4">
    <path d="M 447 334.8 
L 447 20.016315 
" style="fill: none"/>
   </g>
   <g id="g0f0011_3470a1_patch_5">
    <path d="M 10.8 177.408158 
L 447 177.408158 
" style="fill: none; stroke: #000000; stroke-width: 0.8; stroke-linejoin: miter; stroke-linecap: square"/>
   </g>
   <g id="g0f0011_3470a1_patch_6">
    <path d="M 10.8 20.016315 
L 447 20.016315 
" style="fill: none"/>
   </g>
  </g>
 </g>
 <defs>
  <clipPath id="g0f0011_3470a1_p0e52735443">
   <rect x="10.8" y="20.016315" width="436.2" height="314.783685"/>
  </clipPath>
 </defs>
</svg>
