<?xml version="1.0" encoding="utf-8" standalone="no"?>
<!DOCTYPE svg PUBLIC "-//W3C//DTD SVG 1.1//EN"
  "http://www.w3.org/Graphics/SVG/1.1/DTD/svg11.dtd">
<svg xmlns:xlink="http://www.w3.org/1999/xlink" width="460.8pt" height="345.6pt" viewBox="0 0 460.8 345.6" xmlns="http://www.w3.org/2000/svg" version="1.1">
 <metadata>
  <rdf:RDF xmlns:dc="http://purl.org/dc/elements/1.1/" xmlns:cc="http://creativecommons.org/ns#" xmlns:rdf="http://www.w3.org/1999/02/22-rdf-syntax-ns#">
   <cc:Work>
    <dc:type rdf:resource="http://purl.org/dc/dcmitype/StillImage"/>
    <dc:date>2026-09-08T18:00:21.674723</dc:date>
    <dc:format>image/svg+xml</dc:format>
    <dc:creator>
     <cc:Agent>
      <dc:title>Matplotlib v3.9.1, https://matplotlib.org/</dc:title>
     </cc:Agent>
    </dc:creator>
   </cc:Work>
  </rdf:RDF>
 </metadata>
 <defs>
  <style type="text/css">*{stroke-linejoin: round; stroke-linecap: butt}</style>
 </defs>
 <g id="figure_1">
  <g id="patch_1">
   <path d="M 0 345.6 
L 460.8 345.6 
L 460.8 0 
L 0 0 
L 0 345.6 
z
" style="fill: none"/>
  </g>
  <g id="axes_1">
   <g id="patch_2">
    <path d="M 15.86832 308.095887 
L 447 308.095887 
L 447 37.504113 
L 15.86832 37.504113 
L 15.86832 308.095887 
z
" style="fill: none"/>
   </g>
   <g id="patch_3">
    <path d="M 117.165457 257.841918 
L 372.291211 257.841918 
L 372.291211 145.342035 
L 117.165457 145.342035 
L 117.165457 257.841918 
z
" clip-path="url(#p8aef185659)" style="fill: none; opacity: 0"/>
   </g>
   <g id="matplotlib.axis_1">
    <g id="text_1">
     <!-- $x$ -->
     <g transform="translate(435.913188 275.678915) scale(0.2 -0.2)">
      <defs>
       <path id="CMMI12-78" d="M 3034 2606 
C 2829 2567 2752 2414 2752 2293 
C 2752 2139 2874 2088 2963 2088 
C 3155 2088 3290 2254 3290 2427 
C 3290 2695 2982 2816 2714 2816 
C 2323 2816 2106 2433 2048 2312 
C 1901 2816 1504 2816 1389 2816 
C 736 2816 390 1980 390 1839 
C 390 1814 416 1782 461 1782 
C 512 1782 525 1820 538 1846 
C 755 2555 1184 2689 1370 2689 
C 1658 2689 1715 2420 1715 2267 
C 1715 2127 1677 1980 1600 1673 
L 1382 798 
C 1286 415 1101 64 762 64 
C 730 64 570 64 435 147 
C 666 192 717 383 717 460 
C 717 588 621 664 499 664 
C 346 664 179 530 179 326 
C 179 57 480 -64 755 -64 
C 1062 -64 1280 179 1414 441 
C 1517 64 1837 -64 2074 -64 
C 2726 -64 3072 773 3072 913 
C 3072 945 3046 971 3008 971 
C 2950 971 2944 939 2925 888 
C 2752 326 2381 64 2093 64 
C 1869 64 1747 230 1747 492 
C 1747 632 1773 734 1875 1156 
L 2099 2024 
C 2195 2408 2413 2689 2707 2689 
C 2720 2689 2899 2689 3034 2606 
z
" transform="scale(0.015625)"/>
      </defs>
      <use xlink:href="#CMMI12-78" transform="scale(0.996264)"/>
     </g>
    </g>
   </g>
   <g id="matplotlib.axis_2">
    <g id="text_2">
     <!-- $y$ -->
     <g transform="translate(231.215499 33.628479) scale(0.2 -0.2)">
      <defs>
       <path id="CMMI12-79" d="M 1683 -700 
C 1510 -939 1261 -1152 947 -1152 
C 870 -1152 563 -1152 467 -889 
C 486 -895 518 -895 531 -895 
C 723 -895 851 -729 851 -582 
C 851 -435 730 -384 634 -384 
C 531 -384 307 -458 307 -759 
C 307 -1071 582 -1286 947 -1286 
C 1587 -1286 2234 -700 2413 6 
L 3040 2485 
C 3046 2517 3059 2556 3059 2594 
C 3059 2689 2982 2753 2886 2753 
C 2829 2753 2694 2727 2643 2535 
L 2170 658 
C 2138 543 2138 530 2086 460 
C 1958 281 1747 64 1440 64 
C 1082 64 1050 415 1050 588 
C 1050 952 1222 1443 1395 1903 
C 1466 2088 1504 2178 1504 2305 
C 1504 2574 1312 2816 998 2816 
C 410 2816 173 1890 173 1839 
C 173 1814 198 1782 243 1782 
C 301 1782 307 1807 333 1897 
C 486 2433 730 2689 979 2689 
C 1037 2689 1146 2689 1146 2478 
C 1146 2312 1075 2127 979 1884 
C 666 1047 666 837 666 683 
C 666 77 1101 -64 1421 -64 
C 1606 -64 1837 -6 2061 230 
L 2067 224 
C 1971 -147 1907 -392 1683 -700 
z
" transform="scale(0.015625)"/>
      </defs>
      <use xlink:href="#CMMI12-79" transform="scale(0.996264)"/>
     </g>
    </g>
   </g>
   <g id="line2d_1">
    <defs>
     <path id="m227cf6bc9d" d="M 3 0 
L -3 -3 
L -3 3 
z
" style="stroke: #000000; stroke-linejoin: miter"/>
    </defs>
    <g>
     <use xlink:href="#m227cf6bc9d" x="447" y="257.841918" style="stroke: #000000; stroke-linejoin: miter"/>
    </g>
   </g>
   <g id="line2d_2">
    <defs>
     <path id="maaac915558" d="M 0 -3 
L -3 3 
L 3 3 
z
" style="stroke: #000000; stroke-linejoin: miter"/>
    </defs>
    <g>
     <use xlink:href="#maaac915558" x="244.728334" y="37.504113" style="stroke: #000000; stroke-linejoin: miter"/>
    </g>
   </g>
   <g id="line2d_3">
    <path d="M 74.644498 257.841918 
L 74.810606 250.326809 
L 75.205111 244.043794 
L 75.828015 237.812103 
L 76.658553 231.744791 
L 77.717489 225.656688 
L 78.98406 219.666705 
L 80.479029 213.675449 
L 82.181632 207.771159 
L 84.09187 201.945249 
L 86.209742 196.194799 
L 88.535249 190.520068 
L 91.06839 184.923244 
L 93.809166 179.407766 
L 96.736813 174.014589 
L 99.872095 168.706171 
L 103.194248 163.520056 
L 106.703272 158.455835 
L 110.378403 153.541356 
L 114.240405 148.748326 
L 118.268516 144.103509 
L 122.462733 139.606415 
L 126.823059 135.257835 
L 131.328728 131.078198 
L 135.979742 127.066328 
L 140.7761 123.22229 
L 145.717802 119.547211 
L 150.784085 116.056907 
L 155.974949 112.751092 
L 161.269629 109.642202 
L 166.688891 106.718271 
L 172.21197 103.991704 
L 177.818102 101.472061 
L 183.507289 99.158286 
L 189.279529 97.05031 
L 195.134823 95.148971 
L 201.052408 93.461491 
L 207.011519 91.99273 
L 213.032921 90.737423 
L 219.09585 89.700647 
L 225.179542 88.885249 
L 231.304761 88.288626 
L 237.450743 87.913851 
L 243.596726 87.761846 
L 249.742708 87.832014 
L 255.888691 88.12463 
L 262.01391 88.638726 
L 268.118365 89.374064 
L 274.181294 90.327637 
L 280.223459 91.503085 
L 286.203334 92.892424 
L 292.141682 94.500295 
L 298.017739 96.321794 
L 303.810743 98.34966 
L 309.541457 100.591257 
L 315.189116 103.039497 
L 320.732958 105.684735 
L 326.172983 108.525876 
L 331.509191 111.562753 
L 336.741582 114.796214 
L 341.849391 118.213799 
L 346.83262 121.815355 
L 351.691269 125.601826 
L 356.404573 129.557356 
L 360.972533 133.681548 
L 365.374385 137.954297 
L 369.630893 142.395558 
L 373.721294 146.984678 
L 377.645587 151.721631 
L 381.403772 156.607853 
L 384.975086 161.616351 
L 388.359529 166.745315 
L 391.557101 171.994236 
L 394.567802 177.364312 
L 397.370868 182.816802 
L 399.987064 188.392381 
L 402.395624 194.048996 
L 404.59655 199.784493 
L 406.589842 205.598608 
L 408.375499 211.494139 
L 409.932758 217.394304 
L 411.282383 223.370769 
L 412.424373 229.442096 
L 413.337965 235.496813 
L 414.023159 241.478129 
L 414.500718 247.553631 
L 414.74988 253.23917 
L 414.81217 257.841918 
L 414.81217 257.841918 
" clip-path="url(#p8aef185659)" style="fill: none; stroke: #0072b2; stroke-width: 2.5; stroke-linecap: square"/>
   </g>
   <g id="line2d_4">
    <path d="M 117.165457 257.841918 
L 372.291211 257.841918 
L 372.291211 145.342035 
L 117.165457 145.342035 
L 117.165457 257.841918 
" clip-path="url(#p8aef185659)" style="fill: none; stroke: #000000; stroke-width: 1.5; stroke-linecap: square"/>
   </g>
   <g id="line2d_5">
    <defs>
     <path id="mfe8e8ebffe" d="M 0 5 
C 1.326016 5 2.597899 4.473168 3.535534 3.535534 
C 4.473168 2.597899 5 1.326016 5 0 
C 5 -1.326016 4.473168 -2.597899 3.535534 -3.535534 
C 2.597899 -4.473168 1.326016 -5 0 -5 
C -1.326016 -5 -2.597899 -4.473168 -3.535534 -3.535534 
C -4.473168 -2.597899 -5 -1.326016 -5 0 
C -5 1.326016 -4.473168 2.597899 -3.535534 3.535534 
C -2.597899 4.473168 -1.326016 5 0 5 
z
" style="stroke: #000000; stroke-opacity: 0.8"/>
    </defs>
    <g clip-path="url(#p8aef185659)">
     <use xlink:href="#mfe8e8ebffe" x="117.165457" y="257.841918" style="fill-opacity: 0.8; stroke: #000000; stroke-opacity: 0.8"/>
    </g>
   </g>
   <g id="line2d_6">
    <g clip-path="url(#p8aef185659)">
     <use xlink:href="#mfe8e8ebffe" x="372.291211" y="257.841918" style="fill-opacity: 0.8; stroke: #000000; stroke-opacity: 0.8"/>
    </g>
   </g>
   <g id="line2d_7">
    <g clip-path="url(#p8aef185659)">
     <use xlink:href="#mfe8e8ebffe" x="372.291211" y="145.342035" style="fill-opacity: 0.8; stroke: #000000; stroke-opacity: 0.8"/>
    </g>
   </g>
   <g id="line2d_8">
    <g clip-path="url(#p8aef185659)">
     <use xlink:href="#mfe8e8ebffe" x="117.165457" y="145.342035" style="fill-opacity: 0.8; stroke: #000000; stroke-opacity: 0.8"/>
    </g>
   </g>
   <g id="patch_4">
    <path d="M 244.728334 308.095887 
L 244.728334 37.504113 
" style="fill: none; stroke: #000000; stroke-width: 0.8; stroke-linejoin: miter; stroke-linecap: square"/>
   </g>
   <g id="patch_5">
    <path d="M 447 308.095887 
L 447 37.504113 
" style="fill: none"/>
   </g>
   <g id="patch_6">
    <path d="M 15.86832 257.841918 
L 447 257.841918 
" style="fill: none; stroke: #000000; stroke-width: 0.8; stroke-linejoin: miter; stroke-linecap: square"/>
   </g>
   <g id="patch_7">
    <path d="M 15.86832 37.504113 
L 447 37.504113 
" style="fill: none"/>
   </g>
   <g id="text_3">
    <!-- $(-x, 0)$ -->
    <g transform="translate(87.877969 276.670706) scale(0.2 -0.2)">
     <defs>
      <path id="CMR17-28" d="M 1958 -1561 
C 1958 -1555 1958 -1542 1939 -1523 
C 1645 -1224 858 -407 858 1581 
C 858 3569 1632 4379 1946 4697 
C 1946 4704 1958 4717 1958 4736 
C 1958 4755 1939 4768 1914 4768 
C 1843 4768 1299 4296 986 3594 
C 666 2887 576 2199 576 1588 
C 576 1128 621 351 1005 -471 
C 1312 -1135 1837 -1600 1914 -1600 
C 1946 -1600 1958 -1587 1958 -1561 
z
" transform="scale(0.015625)"/>
      <path id="CMSY10-0" d="M 4218 1472 
C 4326 1472 4442 1472 4442 1600 
C 4442 1728 4326 1728 4218 1728 
L 755 1728 
C 646 1728 531 1728 531 1600 
C 531 1472 646 1472 755 1472 
L 4218 1472 
z
" transform="scale(0.015625)"/>
      <path id="CMMI12-3b" d="M 1248 -31 
C 1248 343 1126 619 864 619 
C 659 619 557 453 557 313 
C 557 172 653 0 870 0 
C 954 0 1024 26 1082 83 
C 1094 96 1101 96 1107 96 
C 1120 96 1120 5 1120 -27 
C 1120 -240 1082 -659 710 -1080 
C 640 -1157 640 -1170 640 -1183 
C 640 -1216 672 -1248 704 -1248 
C 755 -1248 1248 -771 1248 -31 
z
" transform="scale(0.015625)"/>
      <path id="CMR17-30" d="M 2688 2025 
C 2688 2416 2682 3080 2413 3591 
C 2176 4039 1798 4198 1466 4198 
C 1158 4198 768 4058 525 3597 
C 269 3118 243 2524 243 2025 
C 243 1661 250 1106 448 619 
C 723 -39 1216 -128 1466 -128 
C 1760 -128 2208 -7 2470 600 
C 2662 1042 2688 1559 2688 2025 
z
M 1466 -26 
C 1056 -26 813 325 723 812 
C 653 1188 653 1738 653 2096 
C 653 2588 653 2997 736 3387 
C 858 3929 1216 4096 1466 4096 
C 1728 4096 2067 3923 2189 3400 
C 2272 3036 2278 2607 2278 2096 
C 2278 1680 2278 1169 2202 792 
C 2067 95 1690 -26 1466 -26 
z
" transform="scale(0.015625)"/>
      <path id="CMR17-29" d="M 1683 1581 
C 1683 2040 1638 2817 1254 3639 
C 947 4303 422 4768 346 4768 
C 326 4768 301 4761 301 4729 
C 301 4717 307 4710 314 4697 
C 621 4378 1402 3568 1402 1584 
C 1402 -407 627 -1217 314 -1537 
C 307 -1549 301 -1556 301 -1568 
C 301 -1600 326 -1600 346 -1600 
C 416 -1600 960 -1128 1274 -426 
C 1594 281 1683 969 1683 1581 
z
" transform="scale(0.015625)"/>
     </defs>
     <use xlink:href="#CMR17-28" transform="scale(0.996264)"/>
     <use xlink:href="#CMSY10-0" transform="translate(35.280768 0) scale(0.996264)"/>
     <use xlink:href="#CMMI12-78" transform="translate(112.768235 0) scale(0.996264)"/>
     <use xlink:href="#CMMI12-3b" transform="translate(168.202295 0) scale(0.996264)"/>
     <use xlink:href="#CMR17-30" transform="translate(211.903877 0) scale(0.996264)"/>
     <use xlink:href="#CMR17-29" transform="translate(257.594354 0) scale(0.996264)"/>
    </g>
   </g>
   <g id="text_4">
    <!-- $(x, 0)$ -->
    <g transform="translate(350.752467 276.670706) scale(0.2 -0.2)">
     <use xlink:href="#CMR17-28" transform="scale(0.996264)"/>
     <use xlink:href="#CMMI12-78" transform="translate(35.280768 0) scale(0.996264)"/>
     <use xlink:href="#CMMI12-3b" transform="translate(90.714827 0) scale(0.996264)"/>
     <use xlink:href="#CMR17-30" transform="translate(134.41641 0) scale(0.996264)"/>
     <use xlink:href="#CMR17-29" transform="translate(180.106887 0) scale(0.996264)"/>
    </g>
   </g>
   <g id="text_5">
    <!-- $(x, f(x))$ -->
    <g transform="translate(377.903977 136.474625) scale(0.2 -0.2)">
     <defs>
      <path id="CMMI12-66" d="M 2854 2566 
C 2982 2566 3034 2566 3034 2688 
C 3034 2752 2982 2752 2867 2752 
L 2349 2752 
C 2470 3429 2560 3897 2611 4107 
C 2650 4265 2784 4416 2950 4416 
C 3085 4416 3219 4358 3283 4298 
C 3034 4272 2957 4082 2957 3969 
C 2957 3837 3053 3759 3174 3759 
C 3302 3759 3494 3870 3494 4119 
C 3494 4393 3226 4544 2944 4544 
C 2669 4544 2400 4334 2272 4078 
C 2157 3848 2093 3611 1946 2752 
L 1517 2752 
C 1395 2752 1331 2752 1331 2637 
C 1331 2566 1370 2566 1498 2566 
L 1907 2566 
C 1792 1976 1530 542 1382 -137 
C 1274 -689 1178 -1152 858 -1152 
C 838 -1152 653 -1152 538 -1031 
C 864 -1005 864 -726 864 -720 
C 864 -593 768 -517 646 -517 
C 518 -517 326 -625 326 -867 
C 326 -1140 608 -1280 858 -1280 
C 1510 -1280 1779 -118 1850 199 
C 1965 688 2278 2376 2310 2566 
L 2854 2566 
z
" transform="scale(0.015625)"/>
     </defs>
     <use xlink:href="#CMR17-28" transform="scale(0.996264)"/>
     <use xlink:href="#CMMI12-78" transform="translate(35.280768 0) scale(0.996264)"/>
     <use xlink:href="#CMMI12-3b" transform="translate(90.714827 0) scale(0.996264)"/>
     <use xlink:href="#CMMI12-66" transform="translate(134.41641 0) scale(0.996264)"/>
     <use xlink:href="#CMR17-28" transform="translate(193.136714 0) scale(0.996264)"/>
     <use xlink:href="#CMMI12-78" transform="translate(228.417482 0) scale(0.996264)"/>
     <use xlink:href="#CMR17-29" transform="translate(283.851542 0) scale(0.996264)"/>
     <use xlink:href="#CMR17-29" transform="translate(319.13231 0) scale(0.996264)"/>
    </g>
   </g>
   <g id="text_6">
    <!-- $(-x, f(-x))$ -->
    <g transform="translate(9.675149 136.474625) scale(0.2 -0.2)">
     <use xlink:href="#CMR17-28" transform="scale(0.996264)"/>
     <use xlink:href="#CMSY10-0" transform="translate(35.280768 0) scale(0.996264)"/>
     <use xlink:href="#CMMI12-78" transform="translate(112.768235 0) scale(0.996264)"/>
     <use xlink:href="#CMMI12-3b" transform="translate(168.202295 0) scale(0.996264)"/>
     <use xlink:href="#CMMI12-66" transform="translate(211.903877 0) scale(0.996264)"/>
     <use xlink:href="#CMR17-28" transform="translate(270.624182 0) scale(0.996264)"/>
     <use xlink:href="#CMSY10-0" transform="translate(305.90495 0) scale(0.996264)"/>
     <use xlink:href="#CMMI12-78" transform="translate(383.392418 0) scale(0.996264)"/>
     <use xlink:href="#CMR17-29" transform="translate(438.826477 0) scale(0.996264)"/>
     <use xlink:href="#CMR17-29" transform="translate(474.107245 0) scale(0.996264)"/>
    </g>
   </g>
   <g id="legend_1">
    <g id="patch_8">
     <path d="M 359.383352 81.379746 
L 433 81.379746 
Q 437 81.379746 437 77.379746 
L 437 51.504113 
Q 437 47.504113 433 47.504113 
L 359.383352 47.504113 
Q 355.383352 47.504113 355.383352 51.504113 
L 355.383352 77.379746 
Q 355.383352 81.379746 359.383352 81.379746 
z
" style="fill: #ffffff; opacity: 0.8; stroke: #cccccc; stroke-linejoin: miter"/>
    </g>
    <g id="line2d_9">
     <path d="M 363.383352 62.504113 
L 383.383352 62.504113 
L 403.383352 62.504113 
" style="fill: none; stroke: #0072b2; stroke-width: 2.5; stroke-linecap: square"/>
    </g>
    <g id="text_7">
     <!-- $f$ -->
     <g transform="translate(419.383352 69.504113) scale(0.2 -0.2)">
      <use xlink:href="#CMMI12-66" transform="scale(0.996264)"/>
     </g>
    </g>
   </g>
  </g>
 </g>
 <defs>
  <clipPath id="p8aef185659">
   <rect x="15.86832" y="37.504113" width="431.13168" height="270.591774"/>
  </clipPath>
 </defs>
</svg>
