<?xml version="1.0" encoding="utf-8" standalone="no"?>
<!DOCTYPE svg PUBLIC "-//W3C//DTD SVG 1.1//EN"
  "http://www.w3.org/Graphics/SVG/1.1/DTD/svg11.dtd">
<svg xmlns:xlink="http://www.w3.org/1999/xlink" viewBox="0 0 460.8 345.6" xmlns="http://www.w3.org/2000/svg" version="1.1" class="graph-inline-svg" role="img" aria-label="Tilpasset figur">
 <metadata>
  <rdf:RDF xmlns:dc="http://purl.org/dc/elements/1.1/" xmlns:cc="http://creativecommons.org/ns#" xmlns:rdf="http://www.w3.org/1999/02/22-rdf-syntax-ns#">
   <cc:Work>
    <dc:type rdf:resource="http://purl.org/dc/dcmitype/StillImage"/>
    <dc:date>2026-05-17T13:38:21.471652</dc:date>
    <dc:format>image/svg+xml</dc:format>
    <dc:creator>
     <cc:Agent>
      <dc:title>Matplotlib v3.9.1, https://matplotlib.org/</dc:title>
     </cc:Agent>
    </dc:creator>
   </cc:Work>
  </rdf:RDF>
 </metadata>
 <defs>
  <style type="text/css">*{stroke-linejoin: round; stroke-linecap: butt}</style>
 </defs>
 <g id="g3f0011_644431_figure_1">
  <g id="g3f0011_644431_patch_1">
   <path d="M 0 345.6 
L 460.8 345.6 
L 460.8 0 
L 0 0 
L 0 345.6 
z
" style="fill: none"/>
  </g>
  <g id="g3f0011_644431_axes_1">
   <g id="g3f0011_644431_patch_2">
    <path d="M 10.8 288.374739 
L 447 288.374739 
L 447 20.016315 
L 10.8 20.016315 
L 10.8 288.374739 
z
" style="fill: none"/>
   </g>
   <g id="g3f0011_644431_matplotlib.axis_1">
    <g id="g3f0011_644431_xtick_1">
     <g id="g3f0011_644431_line2d_1">
      <path d="M 54.42 288.374739 
L 54.42 20.016315 
" clip-path="url(#g3f0011_644431_pecc3571b5d)" style="fill: none; stroke-dasharray: 2.96,1.28; stroke-dashoffset: 0; stroke: #b0b0b0; stroke-opacity: 0.6; stroke-width: 0.8"/>
     </g>
     <g id="g3f0011_644431_line2d_2">
      <defs>
       <path id="g3f0011_644431_m6046f62fb6" d="M 0 0 
L 0 3.5 
" style="stroke: #000000; stroke-width: 0.8"/>
      </defs>
      <g>
       <use xlink:href="#g3f0011_644431_m6046f62fb6" x="54.42" y="288.374739" style="stroke: #000000; stroke-width: 0.8"/>
      </g>
     </g>
     <g id="g3f0011_644431_text_1">
      <!-- $\mathdefault{−4}$ -->
      <g transform="translate(42.102209 309.211736) scale(0.2 -0.2)">
       <defs>
        <path id="g3f0011_644431_CMSY10-0" d="M 4218 1472 
C 4326 1472 4442 1472 4442 1600 
C 4442 1728 4326 1728 4218 1728 
L 755 1728 
C 646 1728 531 1728 531 1600 
C 531 1472 646 1472 755 1472 
L 4218 1472 
z
" transform="scale(0.015625)"/>
        <path id="g3f0011_644431_CMR17-34" d="M 2150 4122 
C 2150 4256 2144 4256 2029 4256 
L 128 1254 
L 128 1088 
L 1779 1088 
L 1779 457 
C 1779 224 1766 160 1318 160 
L 1197 160 
L 1197 0 
C 1402 0 1747 0 1965 0 
C 2182 0 2528 0 2733 0 
L 2733 160 
L 2611 160 
C 2163 160 2150 224 2150 457 
L 2150 1088 
L 2803 1088 
L 2803 1254 
L 2150 1254 
L 2150 4122 
z
M 1798 3703 
L 1798 1254 
L 256 1254 
L 1798 3703 
z
" transform="scale(0.015625)"/>
       </defs>
       <use xlink:href="#g3f0011_644431_CMSY10-0" transform="scale(0.996264)"/>
       <use xlink:href="#g3f0011_644431_CMR17-34" transform="translate(77.487468 0) scale(0.996264)"/>
      </g>
     </g>
    </g>
    <g id="g3f0011_644431_xtick_2">
     <g id="g3f0011_644431_line2d_3">
      <path d="M 98.04 288.374739 
L 98.04 20.016315 
" clip-path="url(#g3f0011_644431_pecc3571b5d)" style="fill: none; stroke-dasharray: 2.96,1.28; stroke-dashoffset: 0; stroke: #b0b0b0; stroke-opacity: 0.6; stroke-width: 0.8"/>
     </g>
     <g id="g3f0011_644431_line2d_4">
      <g>
       <use xlink:href="#g3f0011_644431_m6046f62fb6" x="98.04" y="288.374739" style="stroke: #000000; stroke-width: 0.8"/>
      </g>
     </g>
     <g id="g3f0011_644431_text_2">
      <!-- $\mathdefault{−3}$ -->
      <g transform="translate(85.722209 309.211736) scale(0.2 -0.2)">
       <defs>
        <path id="g3f0011_644431_CMR17-33" d="M 1414 2157 
C 1984 2157 2234 1662 2234 1090 
C 2234 320 1824 25 1453 25 
C 1114 25 563 194 390 693 
C 422 680 454 680 486 680 
C 640 680 755 782 755 948 
C 755 1133 614 1216 486 1216 
C 378 1216 211 1165 211 926 
C 211 335 787 -128 1466 -128 
C 2176 -128 2720 430 2720 1085 
C 2720 1707 2208 2157 1600 2227 
C 2086 2328 2554 2756 2554 3329 
C 2554 3820 2048 4179 1472 4179 
C 890 4179 378 3829 378 3329 
C 378 3110 544 3072 627 3072 
C 762 3072 877 3155 877 3321 
C 877 3486 762 3569 627 3569 
C 602 3569 570 3569 544 3557 
C 730 3959 1235 4032 1459 4032 
C 1683 4032 2106 3925 2106 3320 
C 2106 3143 2080 2828 1862 2550 
C 1670 2304 1453 2304 1242 2284 
C 1210 2284 1062 2269 1037 2269 
C 992 2263 966 2257 966 2208 
C 966 2163 973 2157 1101 2157 
L 1414 2157 
z
" transform="scale(0.015625)"/>
       </defs>
       <use xlink:href="#g3f0011_644431_CMSY10-0" transform="scale(0.996264)"/>
       <use xlink:href="#g3f0011_644431_CMR17-33" transform="translate(77.487468 0) scale(0.996264)"/>
      </g>
     </g>
    </g>
    <g id="g3f0011_644431_xtick_3">
     <g id="g3f0011_644431_line2d_5">
      <path d="M 141.66 288.374739 
L 141.66 20.016315 
" clip-path="url(#g3f0011_644431_pecc3571b5d)" style="fill: none; stroke-dasharray: 2.96,1.28; stroke-dashoffset: 0; stroke: #b0b0b0; stroke-opacity: 0.6; stroke-width: 0.8"/>
     </g>
     <g id="g3f0011_644431_line2d_6">
      <g>
       <use xlink:href="#g3f0011_644431_m6046f62fb6" x="141.66" y="288.374739" style="stroke: #000000; stroke-width: 0.8"/>
      </g>
     </g>
     <g id="g3f0011_644431_text_3">
      <!-- $\mathdefault{−2}$ -->
      <g transform="translate(129.342209 309.211736) scale(0.2 -0.2)">
       <defs>
        <path id="g3f0011_644431_CMR17-32" d="M 2669 989 
L 2554 989 
C 2490 536 2438 459 2413 420 
C 2381 369 1920 369 1830 369 
L 602 369 
C 832 619 1280 1072 1824 1597 
C 2214 1967 2669 2402 2669 3035 
C 2669 3790 2067 4224 1395 4224 
C 691 4224 262 3604 262 3030 
C 262 2780 448 2748 525 2748 
C 589 2748 781 2787 781 3010 
C 781 3207 614 3264 525 3264 
C 486 3264 448 3258 422 3245 
C 544 3790 915 4058 1306 4058 
C 1862 4058 2227 3617 2227 3035 
C 2227 2479 1901 2000 1536 1584 
L 262 146 
L 262 0 
L 2515 0 
L 2669 989 
z
" transform="scale(0.015625)"/>
       </defs>
       <use xlink:href="#g3f0011_644431_CMSY10-0" transform="scale(0.996264)"/>
       <use xlink:href="#g3f0011_644431_CMR17-32" transform="translate(77.487468 0) scale(0.996264)"/>
      </g>
     </g>
    </g>
    <g id="g3f0011_644431_xtick_4">
     <g id="g3f0011_644431_line2d_7">
      <path d="M 185.28 288.374739 
L 185.28 20.016315 
" clip-path="url(#g3f0011_644431_pecc3571b5d)" style="fill: none; stroke-dasharray: 2.96,1.28; stroke-dashoffset: 0; stroke: #b0b0b0; stroke-opacity: 0.6; stroke-width: 0.8"/>
     </g>
     <g id="g3f0011_644431_line2d_8">
      <g>
       <use xlink:href="#g3f0011_644431_m6046f62fb6" x="185.28" y="288.374739" style="stroke: #000000; stroke-width: 0.8"/>
      </g>
     </g>
     <g id="g3f0011_644431_text_4">
      <!-- $\mathdefault{−1}$ -->
      <g transform="translate(172.962209 309.211736) scale(0.2 -0.2)">
       <defs>
        <path id="g3f0011_644431_CMR17-31" d="M 1702 4058 
C 1702 4192 1696 4192 1606 4192 
C 1357 3916 979 3827 621 3827 
C 602 3827 570 3827 563 3808 
C 557 3795 557 3782 557 3648 
C 755 3648 1088 3686 1344 3839 
L 1344 461 
C 1344 236 1331 160 781 160 
L 589 160 
L 589 0 
C 896 0 1216 0 1523 0 
C 1830 0 2150 0 2458 0 
L 2458 160 
L 2266 160 
C 1715 160 1702 230 1702 458 
L 1702 4058 
z
" transform="scale(0.015625)"/>
       </defs>
       <use xlink:href="#g3f0011_644431_CMSY10-0" transform="scale(0.996264)"/>
       <use xlink:href="#g3f0011_644431_CMR17-31" transform="translate(77.487468 0) scale(0.996264)"/>
      </g>
     </g>
    </g>
    <g id="g3f0011_644431_xtick_5">
     <g id="g3f0011_644431_line2d_9">
      <path d="M 272.52 288.374739 
L 272.52 20.016315 
" clip-path="url(#g3f0011_644431_pecc3571b5d)" style="fill: none; stroke-dasharray: 2.96,1.28; stroke-dashoffset: 0; stroke: #b0b0b0; stroke-opacity: 0.6; stroke-width: 0.8"/>
     </g>
     <g id="g3f0011_644431_line2d_10">
      <g>
       <use xlink:href="#g3f0011_644431_m6046f62fb6" x="272.52" y="288.374739" style="stroke: #000000; stroke-width: 0.8"/>
      </g>
     </g>
     <g id="g3f0011_644431_text_5">
      <!-- $\mathdefault{1}$ -->
      <g transform="translate(267.950952 309.211736) scale(0.2 -0.2)">
       <use xlink:href="#g3f0011_644431_CMR17-31" transform="scale(0.996264)"/>
      </g>
     </g>
    </g>
    <g id="g3f0011_644431_xtick_6">
     <g id="g3f0011_644431_line2d_11">
      <path d="M 316.14 288.374739 
L 316.14 20.016315 
" clip-path="url(#g3f0011_644431_pecc3571b5d)" style="fill: none; stroke-dasharray: 2.96,1.28; stroke-dashoffset: 0; stroke: #b0b0b0; stroke-opacity: 0.6; stroke-width: 0.8"/>
     </g>
     <g id="g3f0011_644431_line2d_12">
      <g>
       <use xlink:href="#g3f0011_644431_m6046f62fb6" x="316.14" y="288.374739" style="stroke: #000000; stroke-width: 0.8"/>
      </g>
     </g>
     <g id="g3f0011_644431_text_6">
      <!-- $\mathdefault{2}$ -->
      <g transform="translate(311.570952 309.211736) scale(0.2 -0.2)">
       <use xlink:href="#g3f0011_644431_CMR17-32" transform="scale(0.996264)"/>
      </g>
     </g>
    </g>
    <g id="g3f0011_644431_xtick_7">
     <g id="g3f0011_644431_line2d_13">
      <path d="M 359.76 288.374739 
L 359.76 20.016315 
" clip-path="url(#g3f0011_644431_pecc3571b5d)" style="fill: none; stroke-dasharray: 2.96,1.28; stroke-dashoffset: 0; stroke: #b0b0b0; stroke-opacity: 0.6; stroke-width: 0.8"/>
     </g>
     <g id="g3f0011_644431_line2d_14">
      <g>
       <use xlink:href="#g3f0011_644431_m6046f62fb6" x="359.76" y="288.374739" style="stroke: #000000; stroke-width: 0.8"/>
      </g>
     </g>
     <g id="g3f0011_644431_text_7">
      <!-- $\mathdefault{3}$ -->
      <g transform="translate(355.190952 309.211736) scale(0.2 -0.2)">
       <use xlink:href="#g3f0011_644431_CMR17-33" transform="scale(0.996264)"/>
      </g>
     </g>
    </g>
    <g id="g3f0011_644431_xtick_8">
     <g id="g3f0011_644431_line2d_15">
      <path d="M 403.38 288.374739 
L 403.38 20.016315 
" clip-path="url(#g3f0011_644431_pecc3571b5d)" style="fill: none; stroke-dasharray: 2.96,1.28; stroke-dashoffset: 0; stroke: #b0b0b0; stroke-opacity: 0.6; stroke-width: 0.8"/>
     </g>
     <g id="g3f0011_644431_line2d_16">
      <g>
       <use xlink:href="#g3f0011_644431_m6046f62fb6" x="403.38" y="288.374739" style="stroke: #000000; stroke-width: 0.8"/>
      </g>
     </g>
     <g id="g3f0011_644431_text_8">
      <!-- $\mathdefault{4}$ -->
      <g transform="translate(398.810952 309.211736) scale(0.2 -0.2)">
       <use xlink:href="#g3f0011_644431_CMR17-34" transform="scale(0.996264)"/>
      </g>
     </g>
    </g>
    <g id="g3f0011_644431_text_9">
     <!-- $x$ -->
     <g transform="translate(435.913188 330.924366) scale(0.2 -0.2)">
      <defs>
       <path id="g3f0011_644431_CMMI12-78" d="M 3034 2606 
C 2829 2567 2752 2414 2752 2293 
C 2752 2139 2874 2088 2963 2088 
C 3155 2088 3290 2254 3290 2427 
C 3290 2695 2982 2816 2714 2816 
C 2323 2816 2106 2433 2048 2312 
C 1901 2816 1504 2816 1389 2816 
C 736 2816 390 1980 390 1839 
C 390 1814 416 1782 461 1782 
C 512 1782 525 1820 538 1846 
C 755 2555 1184 2689 1370 2689 
C 1658 2689 1715 2420 1715 2267 
C 1715 2127 1677 1980 1600 1673 
L 1382 798 
C 1286 415 1101 64 762 64 
C 730 64 570 64 435 147 
C 666 192 717 383 717 460 
C 717 588 621 664 499 664 
C 346 664 179 530 179 326 
C 179 57 480 -64 755 -64 
C 1062 -64 1280 179 1414 441 
C 1517 64 1837 -64 2074 -64 
C 2726 -64 3072 773 3072 913 
C 3072 945 3046 971 3008 971 
C 2950 971 2944 939 2925 888 
C 2752 326 2381 64 2093 64 
C 1869 64 1747 230 1747 492 
C 1747 632 1773 734 1875 1156 
L 2099 2024 
C 2195 2408 2413 2689 2707 2689 
C 2720 2689 2899 2689 3034 2606 
z
" transform="scale(0.015625)"/>
      </defs>
      <use xlink:href="#g3f0011_644431_CMMI12-78" transform="scale(0.996264)"/>
     </g>
    </g>
   </g>
   <g id="g3f0011_644431_matplotlib.axis_2">
    <g id="g3f0011_644431_ytick_1">
     <g id="g3f0011_644431_line2d_17">
      <path d="M 10.8 234.703054 
L 447 234.703054 
" clip-path="url(#g3f0011_644431_pecc3571b5d)" style="fill: none; stroke-dasharray: 2.96,1.28; stroke-dashoffset: 0; stroke: #b0b0b0; stroke-opacity: 0.6; stroke-width: 0.8"/>
     </g>
     <g id="g3f0011_644431_line2d_18">
      <defs>
       <path id="g3f0011_644431_mf214e14b5e" d="M 0 0 
L -3.5 0 
" style="stroke: #000000; stroke-width: 0.8"/>
      </defs>
      <g>
       <use xlink:href="#g3f0011_644431_mf214e14b5e" x="228.9" y="234.703054" style="stroke: #000000; stroke-width: 0.8"/>
      </g>
     </g>
     <g id="g3f0011_644431_text_10">
      <!-- $\mathdefault{1}$ -->
      <g transform="translate(212.761905 241.621553) scale(0.2 -0.2)">
       <use xlink:href="#g3f0011_644431_CMR17-31" transform="scale(0.996264)"/>
      </g>
     </g>
    </g>
    <g id="g3f0011_644431_ytick_2">
     <g id="g3f0011_644431_line2d_19">
      <path d="M 10.8 181.03137 
L 447 181.03137 
" clip-path="url(#g3f0011_644431_pecc3571b5d)" style="fill: none; stroke-dasharray: 2.96,1.28; stroke-dashoffset: 0; stroke: #b0b0b0; stroke-opacity: 0.6; stroke-width: 0.8"/>
     </g>
     <g id="g3f0011_644431_line2d_20">
      <g>
       <use xlink:href="#g3f0011_644431_mf214e14b5e" x="228.9" y="181.03137" style="stroke: #000000; stroke-width: 0.8"/>
      </g>
     </g>
     <g id="g3f0011_644431_text_11">
      <!-- $\mathdefault{2}$ -->
      <g transform="translate(212.761905 187.949868) scale(0.2 -0.2)">
       <use xlink:href="#g3f0011_644431_CMR17-32" transform="scale(0.996264)"/>
      </g>
     </g>
    </g>
    <g id="g3f0011_644431_ytick_3">
     <g id="g3f0011_644431_line2d_21">
      <path d="M 10.8 127.359685 
L 447 127.359685 
" clip-path="url(#g3f0011_644431_pecc3571b5d)" style="fill: none; stroke-dasharray: 2.96,1.28; stroke-dashoffset: 0; stroke: #b0b0b0; stroke-opacity: 0.6; stroke-width: 0.8"/>
     </g>
     <g id="g3f0011_644431_line2d_22">
      <g>
       <use xlink:href="#g3f0011_644431_mf214e14b5e" x="228.9" y="127.359685" style="stroke: #000000; stroke-width: 0.8"/>
      </g>
     </g>
     <g id="g3f0011_644431_text_12">
      <!-- $\mathdefault{3}$ -->
      <g transform="translate(212.761905 134.278183) scale(0.2 -0.2)">
       <use xlink:href="#g3f0011_644431_CMR17-33" transform="scale(0.996264)"/>
      </g>
     </g>
    </g>
    <g id="g3f0011_644431_ytick_4">
     <g id="g3f0011_644431_line2d_23">
      <path d="M 10.8 73.688 
L 447 73.688 
" clip-path="url(#g3f0011_644431_pecc3571b5d)" style="fill: none; stroke-dasharray: 2.96,1.28; stroke-dashoffset: 0; stroke: #b0b0b0; stroke-opacity: 0.6; stroke-width: 0.8"/>
     </g>
     <g id="g3f0011_644431_line2d_24">
      <g>
       <use xlink:href="#g3f0011_644431_mf214e14b5e" x="228.9" y="73.688" style="stroke: #000000; stroke-width: 0.8"/>
      </g>
     </g>
     <g id="g3f0011_644431_text_13">
      <!-- $\mathdefault{4}$ -->
      <g transform="translate(212.761905 80.606498) scale(0.2 -0.2)">
       <use xlink:href="#g3f0011_644431_CMR17-34" transform="scale(0.996264)"/>
      </g>
     </g>
    </g>
    <g id="g3f0011_644431_text_14">
     <!-- $y$ -->
     <g transform="translate(199.24907 16.140682) scale(0.2 -0.2)">
      <defs>
       <path id="g3f0011_644431_CMMI12-79" d="M 1683 -700 
C 1510 -939 1261 -1152 947 -1152 
C 870 -1152 563 -1152 467 -889 
C 486 -895 518 -895 531 -895 
C 723 -895 851 -729 851 -582 
C 851 -435 730 -384 634 -384 
C 531 -384 307 -458 307 -759 
C 307 -1071 582 -1286 947 -1286 
C 1587 -1286 2234 -700 2413 6 
L 3040 2485 
C 3046 2517 3059 2556 3059 2594 
C 3059 2689 2982 2753 2886 2753 
C 2829 2753 2694 2727 2643 2535 
L 2170 658 
C 2138 543 2138 530 2086 460 
C 1958 281 1747 64 1440 64 
C 1082 64 1050 415 1050 588 
C 1050 952 1222 1443 1395 1903 
C 1466 2088 1504 2178 1504 2305 
C 1504 2574 1312 2816 998 2816 
C 410 2816 173 1890 173 1839 
C 173 1814 198 1782 243 1782 
C 301 1782 307 1807 333 1897 
C 486 2433 730 2689 979 2689 
C 1037 2689 1146 2689 1146 2478 
C 1146 2312 1075 2127 979 1884 
C 666 1047 666 837 666 683 
C 666 77 1101 -64 1421 -64 
C 1606 -64 1837 -6 2061 230 
L 2067 224 
C 1971 -147 1907 -392 1683 -700 
z
" transform="scale(0.015625)"/>
      </defs>
      <use xlink:href="#g3f0011_644431_CMMI12-79" transform="scale(0.996264)"/>
     </g>
    </g>
   </g>
   <g id="g3f0011_644431_line2d_25">
    <defs>
     <path id="g3f0011_644431_me70478d2ca" d="M 3 0 
L -3 -3 
L -3 3 
z
" style="stroke: #000000; stroke-linejoin: miter"/>
    </defs>
    <g>
     <use xlink:href="#g3f0011_644431_me70478d2ca" x="447" y="288.374739" style="stroke: #000000; stroke-linejoin: miter"/>
    </g>
   </g>
   <g id="g3f0011_644431_line2d_26">
    <defs>
     <path id="g3f0011_644431_mf1f0ccde55" d="M 0 -3 
L -3 3 
L 3 3 
z
" style="stroke: #000000; stroke-linejoin: miter"/>
    </defs>
    <g>
     <use xlink:href="#g3f0011_644431_mf1f0ccde55" x="228.9" y="20.016315" style="stroke: #000000; stroke-linejoin: miter"/>
    </g>
   </g>
   <g id="g3f0011_644431_line2d_27">
    <path d="M 10.8 89.916661 
L 17.802417 98.076499 
L 24.88471 105.988206 
L 32.020253 113.626783 
L 39.235671 121.025614 
L 46.530965 128.187913 
L 53.906134 135.117091 
L 61.361179 141.816742 
L 68.922725 148.312984 
L 76.564146 154.585368 
L 84.312067 160.658436 
L 92.193115 166.553108 
L 100.180663 172.249891 
L 108.301337 177.768594 
L 116.555136 183.109084 
L 124.968687 188.287629 
L 133.515363 193.287344 
L 142.248416 198.138198 
L 151.14122 202.823572 
L 160.247024 207.369186 
L 169.539205 211.758941 
L 179.044387 216.003298 
L 188.789196 220.110676 
L 198.773631 224.07739 
L 209.024318 227.910207 
L 219.567881 231.614308 
L 230.404322 235.184979 
L 241.560264 238.62642 
L 253.088958 241.949071 
L 264.990405 245.146527 
L 277.291229 248.220035 
L 290.04468 251.176108 
L 303.277385 254.013443 
L 317.015968 256.730488 
L 331.313679 259.330222 
L 346.223769 261.814077 
L 361.826112 264.186123 
L 378.147336 266.441074 
L 395.293939 268.583993 
L 413.345797 270.614212 
L 432.409412 272.532558 
L 447 273.859584 
L 447 273.859584 
" clip-path="url(#g3f0011_644431_pecc3571b5d)" style="fill: none; stroke: #0072b2; stroke-width: 2.5; stroke-linecap: square"/>
   </g>
   <g id="g3f0011_644431_patch_3">
    <path d="M 228.9 288.374739 
L 228.9 20.016315 
" style="fill: none; stroke: #000000; stroke-width: 0.8; stroke-linejoin: miter; stroke-linecap: square"/>
   </g>
   <g id="g3f0011_644431_patch_4">
    <path d="M 447 288.374739 
L 447 20.016315 
" style="fill: none"/>
   </g>
   <g id="g3f0011_644431_patch_5">
    <path d="M 10.8 288.374739 
L 447 288.374739 
" style="fill: none; stroke: #000000; stroke-width: 0.8; stroke-linejoin: miter; stroke-linecap: square"/>
   </g>
   <g id="g3f0011_644431_patch_6">
    <path d="M 10.8 20.016315 
L 447 20.016315 
" style="fill: none"/>
   </g>
  </g>
 </g>
 <defs>
  <clipPath id="g3f0011_644431_pecc3571b5d">
   <rect x="10.8" y="20.016315" width="436.2" height="268.358424"/>
  </clipPath>
 </defs>
</svg>
